[2026-03-24T22:51:59] SOURCE: D:\apps\ErsatzTV-HLS-Copy-Prep\source\02.mp4
[2026-03-24T22:51:59] TARGET: D:\apps\ErsatzTV-HLS-Copy-Prep\target\02.mp4
[2026-03-24T22:51:59] FPS: 25.000000
[2026-03-24T22:51:59] CMD: ["D:\\apps\\ErsatzTV-HLS-Copy-Prep\\bin\\ffmpeg.exe", "-y", "-hide_banner", "-loglevel", "info", "-stats_period", "5", "-progress", "pipe:1", "-i", "D:\\apps\\ErsatzTV-HLS-Copy-Prep\\source\\02.mp4", "-map", "0:v:0", "-map", "0:a:0?", "-sn", "-dn", "-vf", "scale=trunc(iw/2)*2:trunc(ih/2)*2,setsar=1,fps=25", "-c:v", "libx264", "-preset", "medium", "-crf", "18", "-pix_fmt", "yuv420p", "-profile:v", "high", "-level", "4.1", "-g", "25", "-keyint_min", "25", "-sc_threshold", "0", "-bf", "0", "-force_key_frames", "expr:gte(t,n_forced*1)", "-c:a", "aac", "-b:a", "192k", "-ar", "48000", "-ac", "2", "-movflags", "+faststart", "D:\\apps\\ErsatzTV-HLS-Copy-Prep\\target\\02.mp4"]

ffmpeg stats and -progress period set to 5.
Input #0, mov,mp4,m4a,3gp,3g2,mj2, from 'D:\apps\ErsatzTV-HLS-Copy-Prep\source\02.mp4':
  Metadata:
    major_brand     : isom
    minor_version   : 512
    compatible_brands: isomiso2avc1mp41
    date            : 2023-08-18T12:01:13.1669996+08:00
    encoder         : Lavf58.32.104
  Duration: 00:26:44.14, start: 0.000000, bitrate: 2053 kb/s
  Stream #0:0[0x1](und): Video: h264 (High) (avc1 / 0x31637661), yuv420p(tv, bt709, progressive), 1920x1080 [SAR 1:1 DAR 16:9], 1954 kb/s, 25 fps, 25 tbr, 90k tbn (default)
      Metadata:
        handler_name    : VideoHandler
        vendor_id       : [0][0][0][0]
  Stream #0:1[0x2](und): Audio: aac (LC) (mp4a / 0x6134706D), 48000 Hz, stereo, fltp, 93 kb/s (default)
      Metadata:
        handler_name    : SoundHandler
        vendor_id       : [0][0][0][0]
Stream mapping:
  Stream #0:0 -> #0:0 (h264 (native) -> h264 (libx264))
  Stream #0:1 -> #0:1 (aac (native) -> aac (native))
Press [q] to stop, [?] for help
[libx264 @ 000002614dabab40] using SAR=1/1
[libx264 @ 000002614dabab40] using cpu capabilities: MMX2 SSE2Fast SSSE3 SSE4.2 AVX
[libx264 @ 000002614dabab40] profile High, level 4.1, 4:2:0, 8-bit
[libx264 @ 000002614dabab40] 264 - core 165 - H.264/MPEG-4 AVC codec - Copyleft 2003-2025 - http://www.videolan.org/x264.html - options: cabac=1 ref=3 deblock=1:0:0 analyse=0x3:0x113 me=hex subme=7 psy=1 psy_rd=1.00:0.00 mixed_ref=1 me_range=16 chroma_me=1 trellis=1 8x8dct=1 cqm=0 deadzone=21,11 fast_pskip=1 chroma_qp_offset=-2 threads=12 lookahead_threads=2 sliced_threads=0 nr=0 decimate=1 interlaced=0 bluray_compat=0 constrained_intra=0 bframes=0 weightp=2 keyint=25 keyint_min=13 scenecut=0 intra_refresh=0 rc_lookahead=25 rc=crf mbtree=1 crf=18.0 qcomp=0.60 qpmin=0 qpmax=69 qpstep=4 ip_ratio=1.40 aq=1:1.00
Output #0, mp4, to 'D:\apps\ErsatzTV-HLS-Copy-Prep\target\02.mp4':
  Metadata:
    major_brand     : isom
    minor_version   : 512
    compatible_brands: isomiso2avc1mp41
    date            : 2023-08-18T12:01:13.1669996+08:00
    encoder         : Lavf61.7.100
  Stream #0:0(und): Video: h264 (avc1 / 0x31637661), yuv420p(tv, bt709, progressive), 1920x1080 [SAR 1:1 DAR 16:9], q=2-31, 25 fps, 12800 tbn (default)
      Metadata:
        handler_name    : VideoHandler
        vendor_id       : [0][0][0][0]
        encoder         : Lavc61.19.101 libx264
      Side data:
        cpb: bitrate max/min/avg: 0/0/0 buffer size: 0 vbv_delay: N/A
  Stream #0:1(und): Audio: aac (LC) (mp4a / 0x6134706D), 48000 Hz, stereo, fltp, 192 kb/s (default)
      Metadata:
        handler_name    : SoundHandler
        vendor_id       : [0][0][0][0]
        encoder         : Lavc61.19.101 aac
frame=  333 fps= 66 q=23.0 size=    2304KiB time=00:00:13.36 bitrate=1412.8kbits/s speed=2.66x    
frame=333
fps=66.29
stream_0_0_q=23.0
bitrate=1412.8kbits/s
total_size=2359344
out_time_us=13360000
out_time_ms=13360000
out_time=00:00:13.360000
dup_frames=0
drop_frames=0
speed=2.66x
progress=continue
frame=  539 fps= 54 q=23.0 size=    5888KiB time=00:00:21.60 bitrate=2233.1kbits/s speed=2.15x    
frame=539
fps=53.64
stream_0_0_q=23.0
bitrate=2233.1kbits/s
total_size=6029360
out_time_us=21600000
out_time_ms=21600000
out_time=00:00:21.600000
dup_frames=0
drop_frames=0
speed=2.15x
progress=continue
frame=  682 fps= 45 q=23.0 size=    9728KiB time=00:00:27.32 bitrate=2917.0kbits/s speed=1.81x    
frame=682
fps=45.20
stream_0_0_q=23.0
bitrate=2917.0kbits/s
total_size=9961520
out_time_us=27320000
out_time_ms=27320000
out_time=00:00:27.320000
dup_frames=0
drop_frames=0
speed=1.81x
progress=continue
frame=  823 fps= 41 q=23.0 size=   13568KiB time=00:00:32.96 bitrate=3372.3kbits/s speed=1.64x    
frame=823
fps=40.93
stream_0_0_q=23.0
bitrate=3372.3kbits/s
total_size=13893680
out_time_us=32960000
out_time_ms=32960000
out_time=00:00:32.960000
dup_frames=0
drop_frames=0
speed=1.64x
progress=continue
frame=  952 fps= 38 q=23.0 size=   18176KiB time=00:00:38.12 bitrate=3906.0kbits/s speed=1.52x    
frame=952
fps=37.89
stream_0_0_q=23.0
bitrate=3906.0kbits/s
total_size=18612272
out_time_us=38120000
out_time_ms=38120000
out_time=00:00:38.120000
dup_frames=0
drop_frames=0
speed=1.52x
progress=continue
frame= 1071 fps= 36 q=23.0 size=   21504KiB time=00:00:42.88 bitrate=4108.2kbits/s speed=1.42x    
frame=1071
fps=35.52
stream_0_0_q=23.0
bitrate=4108.2kbits/s
total_size=22020144
out_time_us=42880000
out_time_ms=42880000
out_time=00:00:42.880000
dup_frames=0
drop_frames=0
speed=1.42x
progress=continue
frame= 1179 fps= 34 q=23.0 size=   25856KiB time=00:00:47.20 bitrate=4487.6kbits/s speed=1.34x    
frame=1179
fps=33.51
stream_0_0_q=23.0
bitrate=4487.6kbits/s
total_size=26476592
out_time_us=47200000
out_time_ms=47200000
out_time=00:00:47.200000
dup_frames=0
drop_frames=0
speed=1.34x
progress=continue
frame= 1307 fps= 33 q=23.0 size=   29952KiB time=00:00:52.32 bitrate=4689.7kbits/s speed= 1.3x    
frame=1307
fps=32.51
stream_0_0_q=23.0
bitrate=4689.7kbits/s
total_size=30670896
out_time_us=52320000
out_time_ms=52320000
out_time=00:00:52.320000
dup_frames=0
drop_frames=0
speed= 1.3x
progress=continue
frame= 1433 fps= 32 q=23.0 size=   34560KiB time=00:00:57.36 bitrate=4935.8kbits/s speed=1.27x    
frame=1433
fps=31.69
stream_0_0_q=23.0
bitrate=4935.8kbits/s
total_size=35389488
out_time_us=57360000
out_time_ms=57360000
out_time=00:00:57.360000
dup_frames=0
drop_frames=0
speed=1.27x
progress=continue
frame= 1538 fps= 31 q=23.0 size=   39424KiB time=00:01:01.56 bitrate=5246.3kbits/s speed=1.23x    
frame=1538
fps=30.62
stream_0_0_q=23.0
bitrate=5246.3kbits/s
total_size=40370224
out_time_us=61560000
out_time_ms=61560000
out_time=00:01:01.560000
dup_frames=0
drop_frames=0
speed=1.23x
progress=continue
frame= 1640 fps= 30 q=20.0 size=   44032KiB time=00:01:05.64 bitrate=5495.3kbits/s speed=1.19x    
frame=1640
fps=29.69
stream_0_0_q=20.0
bitrate=5495.3kbits/s
total_size=45088816
out_time_us=65640000
out_time_ms=65640000
out_time=00:01:05.640000
dup_frames=0
drop_frames=0
speed=1.19x
progress=continue
frame= 1781 fps= 30 q=23.0 size=   50176KiB time=00:01:11.28 bitrate=5766.6kbits/s speed=1.18x    
frame=1781
fps=29.55
stream_0_0_q=23.0
bitrate=5766.6kbits/s
total_size=51380272
out_time_us=71280000
out_time_ms=71280000
out_time=00:01:11.280000
dup_frames=0
drop_frames=0
speed=1.18x
progress=continue
frame= 1897 fps= 29 q=23.0 size=   54272KiB time=00:01:15.92 bitrate=5856.1kbits/s speed=1.16x    
frame=1897
fps=29.05
stream_0_0_q=23.0
bitrate=5856.1kbits/s
total_size=55574576
out_time_us=75920000
out_time_ms=75920000
out_time=00:01:15.920000
dup_frames=0
drop_frames=0
speed=1.16x
progress=continue
frame= 2021 fps= 29 q=23.0 size=   58880KiB time=00:01:20.88 bitrate=5963.7kbits/s speed=1.15x    
frame=2021
fps=28.74
stream_0_0_q=23.0
bitrate=5963.7kbits/s
total_size=60293168
out_time_us=80880000
out_time_ms=80880000
out_time=00:01:20.880000
dup_frames=0
drop_frames=0
speed=1.15x
progress=continue
frame= 2131 fps= 28 q=23.0 size=   63232KiB time=00:01:25.28 bitrate=6074.1kbits/s speed=1.13x    
frame=2131
fps=28.29
stream_0_0_q=23.0
bitrate=6074.1kbits/s
total_size=64749616
out_time_us=85280000
out_time_ms=85280000
out_time=00:01:25.280000
dup_frames=0
drop_frames=0
speed=1.13x
progress=continue
frame= 2266 fps= 28 q=23.0 size=   67328KiB time=00:01:30.68 bitrate=6082.4kbits/s speed=1.13x    
frame=2266
fps=28.20
stream_0_0_q=23.0
bitrate=6082.4kbits/s
total_size=68943920
out_time_us=90680000
out_time_ms=90680000
out_time=00:01:30.680000
dup_frames=0
drop_frames=0
speed=1.13x
progress=continue
frame= 2410 fps= 28 q=23.0 size=   72448KiB time=00:01:36.44 bitrate=6154.0kbits/s speed=1.13x    
frame=2410
fps=28.23
stream_0_0_q=23.0
bitrate=6154.0kbits/s
total_size=74186800
out_time_us=96440000
out_time_ms=96440000
out_time=00:01:36.440000
dup_frames=0
drop_frames=0
speed=1.13x
progress=continue
frame= 2543 fps= 28 q=23.0 size=   76800KiB time=00:01:41.76 bitrate=6182.6kbits/s speed=1.13x    
frame=2543
fps=28.14
stream_0_0_q=23.0
bitrate=6182.6kbits/s
total_size=78643248
out_time_us=101760000
out_time_ms=101760000
out_time=00:01:41.760000
dup_frames=0
drop_frames=0
speed=1.13x
progress=continue
frame= 2682 fps= 28 q=23.0 size=   81664KiB time=00:01:47.32 bitrate=6233.6kbits/s speed=1.12x    
frame=2682
fps=28.11
stream_0_0_q=23.0
bitrate=6233.6kbits/s
total_size=83623984
out_time_us=107320000
out_time_ms=107320000
out_time=00:01:47.320000
dup_frames=0
drop_frames=0
speed=1.12x
progress=continue
frame= 2955 fps= 29 q=23.0 size=   85760KiB time=00:01:58.24 bitrate=5941.7kbits/s speed=1.18x    
frame=2955
fps=29.43
stream_0_0_q=23.0
bitrate=5941.7kbits/s
total_size=87818288
out_time_us=118240000
out_time_ms=118240000
out_time=00:01:58.240000
dup_frames=0
drop_frames=0
speed=1.18x
progress=continue
frame= 3092 fps= 29 q=23.0 size=   90368KiB time=00:02:03.72 bitrate=5983.6kbits/s speed=1.17x    
frame=3092
fps=29.33
stream_0_0_q=23.0
bitrate=5983.6kbits/s
total_size=92536880
out_time_us=123720000
out_time_ms=123720000
out_time=00:02:03.720000
dup_frames=0
drop_frames=0
speed=1.17x
progress=continue
frame= 3239 fps= 29 q=23.0 size=   94720KiB time=00:02:09.60 bitrate=5987.2kbits/s speed=1.17x    
frame=3239
fps=29.33
stream_0_0_q=23.0
bitrate=5987.2kbits/s
total_size=96993328
out_time_us=129600000
out_time_ms=129600000
out_time=00:02:09.600000
dup_frames=0
drop_frames=0
speed=1.17x
progress=continue
frame= 3391 fps= 29 q=23.0 size=   98304KiB time=00:02:15.68 bitrate=5935.3kbits/s speed=1.18x    
frame=3391
fps=29.37
stream_0_0_q=23.0
bitrate=5935.3kbits/s
total_size=100663344
out_time_us=135680000
out_time_ms=135680000
out_time=00:02:15.680000
dup_frames=0
drop_frames=0
speed=1.18x
progress=continue
frame= 3531 fps= 29 q=23.0 size=  102656KiB time=00:02:21.28 bitrate=5952.4kbits/s speed=1.17x    
frame=3531
fps=29.31
stream_0_0_q=23.0
bitrate=5952.4kbits/s
total_size=105119792
out_time_us=141280000
out_time_ms=141280000
out_time=00:02:21.280000
dup_frames=0
drop_frames=0
speed=1.17x
progress=continue
frame= 3697 fps= 29 q=23.0 size=  107008KiB time=00:02:27.92 bitrate=5926.2kbits/s speed=1.18x    
frame=3697
fps=29.46
stream_0_0_q=23.0
bitrate=5926.2kbits/s
total_size=109576240
out_time_us=147920000
out_time_ms=147920000
out_time=00:02:27.920000
dup_frames=0
drop_frames=0
speed=1.18x
progress=continue
frame= 3865 fps= 30 q=20.0 size=  112128KiB time=00:02:34.64 bitrate=5939.9kbits/s speed=1.19x    
frame=3865
fps=29.62
stream_0_0_q=20.0
bitrate=5939.9kbits/s
total_size=114819120
out_time_us=154640000
out_time_ms=154640000
out_time=00:02:34.640000
dup_frames=0
drop_frames=0
speed=1.19x
progress=continue
frame= 4025 fps= 30 q=23.0 size=  116480KiB time=00:02:41.04 bitrate=5925.3kbits/s speed=1.19x    
frame=4025
fps=29.70
stream_0_0_q=23.0
bitrate=5925.3kbits/s
total_size=119275568
out_time_us=161040000
out_time_ms=161040000
out_time=00:02:41.040000
dup_frames=0
drop_frames=0
speed=1.19x
progress=continue
frame= 4157 fps= 30 q=23.0 size=  120576KiB time=00:02:46.32 bitrate=5938.9kbits/s speed=1.18x    
frame=4157
fps=29.58
stream_0_0_q=23.0
bitrate=5938.9kbits/s
total_size=123469872
out_time_us=166320000
out_time_ms=166320000
out_time=00:02:46.320000
dup_frames=0
drop_frames=0
speed=1.18x
progress=continue
frame= 4323 fps= 30 q=23.0 size=  125440KiB time=00:02:52.96 bitrate=5941.3kbits/s speed=1.19x    
frame=4323
fps=29.70
stream_0_0_q=23.0
bitrate=5941.3kbits/s
total_size=128450608
out_time_us=172960000
out_time_ms=172960000
out_time=00:02:52.960000
dup_frames=0
drop_frames=0
speed=1.19x
progress=continue
frame= 4491 fps= 30 q=23.0 size=  130304KiB time=00:02:59.68 bitrate=5940.8kbits/s speed=1.19x    
frame=4491
fps=29.83
stream_0_0_q=23.0
bitrate=5940.8kbits/s
total_size=133431344
out_time_us=179680000
out_time_ms=179680000
out_time=00:02:59.680000
dup_frames=0
drop_frames=0
speed=1.19x
progress=continue
frame= 4649 fps= 30 q=23.0 size=  134656KiB time=00:03:06.00 bitrate=5930.7kbits/s speed= 1.2x    
frame=4649
fps=29.88
stream_0_0_q=23.0
bitrate=5930.7kbits/s
total_size=137887792
out_time_us=186000000
out_time_ms=186000000
out_time=00:03:06.000000
dup_frames=0
drop_frames=0
speed= 1.2x
progress=continue
frame= 4830 fps= 30 q=23.0 size=  140288KiB time=00:03:13.24 bitrate=5947.2kbits/s speed= 1.2x    
frame=4830
fps=30.08
stream_0_0_q=23.0
bitrate=5947.2kbits/s
total_size=143654960
out_time_us=193240000
out_time_ms=193240000
out_time=00:03:13.240000
dup_frames=0
drop_frames=0
speed= 1.2x
progress=continue
frame= 5004 fps= 30 q=23.0 size=  145408KiB time=00:03:20.20 bitrate=5950.0kbits/s speed=1.21x    
frame=5004
fps=30.22
stream_0_0_q=23.0
bitrate=5950.0kbits/s
total_size=148897840
out_time_us=200200000
out_time_ms=200200000
out_time=00:03:20.200000
dup_frames=0
drop_frames=0
speed=1.21x
progress=continue
frame= 5162 fps= 30 q=23.0 size=  149760KiB time=00:03:26.52 bitrate=5940.5kbits/s speed=1.21x    
frame=5162
fps=30.25
stream_0_0_q=23.0
bitrate=5940.5kbits/s
total_size=153354288
out_time_us=206520000
out_time_ms=206520000
out_time=00:03:26.520000
dup_frames=0
drop_frames=0
speed=1.21x
progress=continue
frame= 5354 fps= 30 q=23.0 size=  154880KiB time=00:03:34.20 bitrate=5923.3kbits/s speed=1.22x    
frame=5354
fps=30.48
stream_0_0_q=23.0
bitrate=5923.3kbits/s
total_size=158597168
out_time_us=214200000
out_time_ms=214200000
out_time=00:03:34.200000
dup_frames=0
drop_frames=0
speed=1.22x
progress=continue
frame= 5494 fps= 30 q=23.0 size=  158976KiB time=00:03:39.80 bitrate=5925.1kbits/s speed=1.22x    
frame=5494
fps=30.41
stream_0_0_q=23.0
bitrate=5925.1kbits/s
total_size=162791472
out_time_us=219800000
out_time_ms=219800000
out_time=00:03:39.800000
dup_frames=0
drop_frames=0
speed=1.22x
progress=continue
frame= 5656 fps= 30 q=23.0 size=  163584KiB time=00:03:46.28 bitrate=5922.2kbits/s speed=1.22x    
frame=5656
fps=30.46
stream_0_0_q=23.0
bitrate=5922.2kbits/s
total_size=167510064
out_time_us=226280000
out_time_ms=226280000
out_time=00:03:46.280000
dup_frames=0
drop_frames=0
speed=1.22x
progress=continue
frame= 5823 fps= 31 q=23.0 size=  168192KiB time=00:03:52.96 bitrate=5914.4kbits/s speed=1.22x    
frame=5823
fps=30.53
stream_0_0_q=23.0
bitrate=5914.4kbits/s
total_size=172228656
out_time_us=232960000
out_time_ms=232960000
out_time=00:03:52.960000
dup_frames=0
drop_frames=0
speed=1.22x
progress=continue
frame= 5981 fps= 31 q=23.0 size=  173568KiB time=00:03:59.28 bitrate=5942.3kbits/s speed=1.22x    
frame=5981
fps=30.56
stream_0_0_q=23.0
bitrate=5942.3kbits/s
total_size=177733680
out_time_us=239280000
out_time_ms=239280000
out_time=00:03:59.280000
dup_frames=0
drop_frames=0
speed=1.22x
progress=continue
frame= 6168 fps= 31 q=23.0 size=  178944KiB time=00:04:06.76 bitrate=5940.6kbits/s speed=1.23x    
frame=6168
fps=30.72
stream_0_0_q=23.0
bitrate=5940.6kbits/s
total_size=183238704
out_time_us=246760000
out_time_ms=246760000
out_time=00:04:06.760000
dup_frames=0
drop_frames=0
speed=1.23x
progress=continue
frame= 6322 fps= 31 q=23.0 size=  183296KiB time=00:04:12.92 bitrate=5936.9kbits/s speed=1.23x    
frame=6322
fps=30.72
stream_0_0_q=23.0
bitrate=5936.9kbits/s
total_size=187695152
out_time_us=252920000
out_time_ms=252920000
out_time=00:04:12.920000
dup_frames=0
drop_frames=0
speed=1.23x
progress=continue
frame= 6478 fps= 31 q=23.0 size=  187904KiB time=00:04:19.16 bitrate=5939.6kbits/s speed=1.23x    
frame=6478
fps=30.73
stream_0_0_q=23.0
bitrate=5939.6kbits/s
total_size=192413744
out_time_us=259160000
out_time_ms=259160000
out_time=00:04:19.160000
dup_frames=0
drop_frames=0
speed=1.23x
progress=continue
frame= 6666 fps= 31 q=23.0 size=  193024KiB time=00:04:26.68 bitrate=5929.4kbits/s speed=1.24x    
frame=6666
fps=30.89
stream_0_0_q=23.0
bitrate=5929.4kbits/s
total_size=197656624
out_time_us=266680000
out_time_ms=266680000
out_time=00:04:26.680000
dup_frames=0
drop_frames=0
speed=1.24x
progress=continue
frame= 6873 fps= 31 q=23.0 size=  197888KiB time=00:04:34.96 bitrate=5895.8kbits/s speed=1.25x    
frame=6873
fps=31.12
stream_0_0_q=23.0
bitrate=5895.8kbits/s
total_size=202637360
out_time_us=274960000
out_time_ms=274960000
out_time=00:04:34.960000
dup_frames=0
drop_frames=0
speed=1.25x
progress=continue
frame= 7044 fps= 31 q=23.0 size=  202496KiB time=00:04:41.80 bitrate=5886.6kbits/s speed=1.25x    
frame=7044
fps=31.19
stream_0_0_q=23.0
bitrate=5886.6kbits/s
total_size=207355952
out_time_us=281800000
out_time_ms=281800000
out_time=00:04:41.800000
dup_frames=0
drop_frames=0
speed=1.25x
progress=continue
frame= 7208 fps= 31 q=23.0 size=  207360KiB time=00:04:48.36 bitrate=5890.9kbits/s speed=1.25x    
frame=7208
fps=31.22
stream_0_0_q=23.0
bitrate=5890.9kbits/s
total_size=212336688
out_time_us=288360000
out_time_ms=288360000
out_time=00:04:48.360000
dup_frames=0
drop_frames=0
speed=1.25x
progress=continue
frame= 7370 fps= 31 q=23.0 size=  212224KiB time=00:04:54.84 bitrate=5896.6kbits/s speed=1.25x    
frame=7370
fps=31.24
stream_0_0_q=23.0
bitrate=5896.6kbits/s
total_size=217317424
out_time_us=294840000
out_time_ms=294840000
out_time=00:04:54.840000
dup_frames=0
drop_frames=0
speed=1.25x
progress=continue
frame= 7544 fps= 31 q=23.0 size=  217088KiB time=00:05:01.80 bitrate=5892.6kbits/s speed=1.25x    
frame=7544
fps=31.31
stream_0_0_q=23.0
bitrate=5892.6kbits/s
total_size=222298160
out_time_us=301800000
out_time_ms=301800000
out_time=00:05:01.800000
dup_frames=0
drop_frames=0
speed=1.25x
progress=continue
frame= 7714 fps= 31 q=23.0 size=  221184KiB time=00:05:08.60 bitrate=5871.5kbits/s speed=1.25x    
frame=7714
fps=31.37
stream_0_0_q=23.0
bitrate=5871.5kbits/s
total_size=226492464
out_time_us=308600000
out_time_ms=308600000
out_time=00:05:08.600000
dup_frames=0
drop_frames=0
speed=1.25x
progress=continue
frame= 7845 fps= 31 q=23.0 size=  226560KiB time=00:05:13.84 bitrate=5913.8kbits/s speed=1.25x    
frame=7845
fps=31.26
stream_0_0_q=23.0
bitrate=5913.8kbits/s
total_size=231997488
out_time_us=313840000
out_time_ms=313840000
out_time=00:05:13.840000
dup_frames=0
drop_frames=0
speed=1.25x
progress=continue
frame= 7984 fps= 31 q=23.0 size=  232192KiB time=00:05:19.40 bitrate=5955.3kbits/s speed=1.25x    
frame=7984
fps=31.19
stream_0_0_q=23.0
bitrate=5955.3kbits/s
total_size=237764656
out_time_us=319400000
out_time_ms=319400000
out_time=00:05:19.400000
dup_frames=0
drop_frames=0
speed=1.25x
progress=continue
frame= 8129 fps= 31 q=23.0 size=  237824KiB time=00:05:25.20 bitrate=5990.9kbits/s speed=1.25x    
frame=8129
fps=31.15
stream_0_0_q=23.0
bitrate=5990.9kbits/s
total_size=243531824
out_time_us=325200000
out_time_ms=325200000
out_time=00:05:25.200000
dup_frames=0
drop_frames=0
speed=1.25x
progress=continue
frame= 8263 fps= 31 q=23.0 size=  242432KiB time=00:05:30.56 bitrate=6008.0kbits/s speed=1.24x    
frame=8263
fps=31.06
stream_0_0_q=23.0
bitrate=6008.0kbits/s
total_size=248250416
out_time_us=330560000
out_time_ms=330560000
out_time=00:05:30.560000
dup_frames=0
drop_frames=0
speed=1.24x
progress=continue
frame= 8410 fps= 31 q=23.0 size=  247040KiB time=00:05:36.44 bitrate=6015.2kbits/s speed=1.24x    
frame=8410
fps=31.03
stream_0_0_q=23.0
bitrate=6015.2kbits/s
total_size=252969008
out_time_us=336440000
out_time_ms=336440000
out_time=00:05:36.440000
dup_frames=0
drop_frames=0
speed=1.24x
progress=continue
frame= 8567 fps= 31 q=23.0 size=  251392KiB time=00:05:42.72 bitrate=6009.0kbits/s speed=1.24x    
frame=8567
fps=31.03
stream_0_0_q=23.0
bitrate=6009.0kbits/s
total_size=257425456
out_time_us=342720000
out_time_ms=342720000
out_time=00:05:42.720000
dup_frames=0
drop_frames=0
speed=1.24x
progress=continue
frame= 8734 fps= 31 q=23.0 size=  255488KiB time=00:05:49.40 bitrate=5990.1kbits/s speed=1.24x    
frame=8734
fps=31.07
stream_0_0_q=23.0
bitrate=5990.1kbits/s
total_size=261619760
out_time_us=349400000
out_time_ms=349400000
out_time=00:05:49.400000
dup_frames=0
drop_frames=0
speed=1.24x
progress=continue
frame= 8894 fps= 31 q=23.0 size=  259328KiB time=00:05:55.80 bitrate=5970.8kbits/s speed=1.24x    
frame=8894
fps=31.09
stream_0_0_q=23.0
bitrate=5970.8kbits/s
total_size=265551920
out_time_us=355800000
out_time_ms=355800000
out_time=00:05:55.800000
dup_frames=0
drop_frames=0
speed=1.24x
progress=continue
frame= 9063 fps= 31 q=23.0 size=  263424KiB time=00:06:02.56 bitrate=5952.0kbits/s speed=1.25x    
frame=9063
fps=31.13
stream_0_0_q=23.0
bitrate=5952.0kbits/s
total_size=269746224
out_time_us=362560000
out_time_ms=362560000
out_time=00:06:02.560000
dup_frames=0
drop_frames=0
speed=1.25x
progress=continue
frame= 9217 fps= 31 q=23.0 size=  267776KiB time=00:06:08.72 bitrate=5949.3kbits/s speed=1.25x    
frame=9217
fps=31.13
stream_0_0_q=23.0
bitrate=5949.3kbits/s
total_size=274202672
out_time_us=368720000
out_time_ms=368720000
out_time=00:06:08.720000
dup_frames=0
drop_frames=0
speed=1.25x
progress=continue
frame= 9374 fps= 31 q=23.0 size=  272128KiB time=00:06:15.00 bitrate=5944.7kbits/s speed=1.25x    
frame=9374
fps=31.13
stream_0_0_q=23.0
bitrate=5944.7kbits/s
total_size=278659120
out_time_us=375000000
out_time_ms=375000000
out_time=00:06:15.000000
dup_frames=0
drop_frames=0
speed=1.25x
progress=continue
frame= 9520 fps= 31 q=23.0 size=  275968KiB time=00:06:20.84 bitrate=5936.2kbits/s speed=1.24x    
frame=9520
fps=31.09
stream_0_0_q=23.0
bitrate=5936.2kbits/s
total_size=282591280
out_time_us=380840000
out_time_ms=380840000
out_time=00:06:20.840000
dup_frames=0
drop_frames=0
speed=1.24x
progress=continue
frame= 9643 fps= 31 q=23.0 size=  281856KiB time=00:06:25.76 bitrate=5985.5kbits/s speed=1.24x    
frame=9643
fps=30.99
stream_0_0_q=23.0
bitrate=5985.5kbits/s
total_size=288620592
out_time_us=385760000
out_time_ms=385760000
out_time=00:06:25.760000
dup_frames=0
drop_frames=0
speed=1.24x
progress=continue
frame= 9760 fps= 31 q=23.0 size=  286464KiB time=00:06:30.44 bitrate=6010.4kbits/s speed=1.23x    
frame=9760
fps=30.86
stream_0_0_q=23.0
bitrate=6010.4kbits/s
total_size=293339184
out_time_us=390440000
out_time_ms=390440000
out_time=00:06:30.440000
dup_frames=0
drop_frames=0
speed=1.23x
progress=continue
frame= 9884 fps= 31 q=23.0 size=  291072KiB time=00:06:35.40 bitrate=6030.5kbits/s speed=1.23x    
frame=9884
fps=30.77
stream_0_0_q=23.0
bitrate=6030.5kbits/s
total_size=298057776
out_time_us=395400000
out_time_ms=395400000
out_time=00:06:35.400000
dup_frames=0
drop_frames=0
speed=1.23x
progress=continue
frame=10005 fps= 31 q=23.0 size=  295168KiB time=00:06:40.24 bitrate=6041.4kbits/s speed=1.23x    
frame=10005
fps=30.67
stream_0_0_q=23.0
bitrate=6041.4kbits/s
total_size=302252080
out_time_us=400240000
out_time_ms=400240000
out_time=00:06:40.240000
dup_frames=0
drop_frames=0
speed=1.23x
progress=continue
frame=10120 fps= 31 q=23.0 size=  299008KiB time=00:06:44.84 bitrate=6050.5kbits/s speed=1.22x    
frame=10120
fps=30.55
stream_0_0_q=23.0
bitrate=6050.5kbits/s
total_size=306184240
out_time_us=404840000
out_time_ms=404840000
out_time=00:06:44.840000
dup_frames=0
drop_frames=0
speed=1.22x
progress=continue
frame=10240 fps= 30 q=20.0 size=  304128KiB time=00:06:49.64 bitrate=6082.0kbits/s speed=1.22x    
frame=10240
fps=30.45
stream_0_0_q=20.0
bitrate=6082.0kbits/s
total_size=311427120
out_time_us=409640000
out_time_ms=409640000
out_time=00:06:49.640000
dup_frames=0
drop_frames=0
speed=1.22x
progress=continue
frame=10368 fps= 30 q=23.0 size=  309504KiB time=00:06:54.76 bitrate=6113.1kbits/s speed=1.22x    
frame=10368
fps=30.38
stream_0_0_q=23.0
bitrate=6113.1kbits/s
total_size=316932144
out_time_us=414760000
out_time_ms=414760000
out_time=00:06:54.760000
dup_frames=0
drop_frames=0
speed=1.22x
progress=continue
frame=10505 fps= 30 q=23.0 size=  314880KiB time=00:07:00.24 bitrate=6138.2kbits/s speed=1.21x    
frame=10505
fps=30.33
stream_0_0_q=23.0
bitrate=6138.2kbits/s
total_size=322437168
out_time_us=420240000
out_time_ms=420240000
out_time=00:07:00.240000
dup_frames=0
drop_frames=0
speed=1.21x
progress=continue
frame=10604 fps= 30 q=23.0 size=  318976KiB time=00:07:04.20 bitrate=6160.0kbits/s speed=1.21x    
frame=10604
fps=30.18
stream_0_0_q=23.0
bitrate=6160.0kbits/s
total_size=326631472
out_time_us=424200000
out_time_ms=424200000
out_time=00:07:04.200000
dup_frames=0
drop_frames=0
speed=1.21x
progress=continue
frame=10709 fps= 30 q=23.0 size=  323840KiB time=00:07:08.40 bitrate=6192.6kbits/s speed= 1.2x    
frame=10709
fps=30.05
stream_0_0_q=23.0
bitrate=6192.6kbits/s
total_size=331612208
out_time_us=428400000
out_time_ms=428400000
out_time=00:07:08.400000
dup_frames=0
drop_frames=0
speed= 1.2x
progress=continue
frame=10819 fps= 30 q=23.0 size=  328704KiB time=00:07:12.80 bitrate=6221.7kbits/s speed= 1.2x    
frame=10819
fps=29.94
stream_0_0_q=23.0
bitrate=6221.7kbits/s
total_size=336592944
out_time_us=432800000
out_time_ms=432800000
out_time=00:07:12.800000
dup_frames=0
drop_frames=0
speed= 1.2x
progress=continue
frame=10939 fps= 30 q=23.0 size=  332800KiB time=00:07:17.60 bitrate=6230.1kbits/s speed=1.19x    
frame=10939
fps=29.85
stream_0_0_q=23.0
bitrate=6230.1kbits/s
total_size=340787248
out_time_us=437600000
out_time_ms=437600000
out_time=00:07:17.600000
dup_frames=0
drop_frames=0
speed=1.19x
progress=continue
frame=11059 fps= 30 q=23.0 size=  337152KiB time=00:07:22.40 bitrate=6243.1kbits/s speed=1.19x    
frame=11059
fps=29.77
stream_0_0_q=23.0
bitrate=6243.1kbits/s
total_size=345243696
out_time_us=442400000
out_time_ms=442400000
out_time=00:07:22.400000
dup_frames=0
drop_frames=0
speed=1.19x
progress=continue
frame=11179 fps= 30 q=23.0 size=  342528KiB time=00:07:27.20 bitrate=6274.6kbits/s speed=1.19x    
frame=11179
fps=29.69
stream_0_0_q=23.0
bitrate=6274.6kbits/s
total_size=350748720
out_time_us=447200000
out_time_ms=447200000
out_time=00:07:27.200000
dup_frames=0
drop_frames=0
speed=1.19x
progress=continue
frame=11296 fps= 30 q=23.0 size=  347648KiB time=00:07:31.88 bitrate=6302.4kbits/s speed=1.18x    
frame=11296
fps=29.61
stream_0_0_q=23.0
bitrate=6302.4kbits/s
total_size=355991600
out_time_us=451880000
out_time_ms=451880000
out_time=00:07:31.880000
dup_frames=0
drop_frames=0
speed=1.18x
progress=continue
frame=11422 fps= 30 q=23.0 size=  352256KiB time=00:07:36.88 bitrate=6316.1kbits/s speed=1.18x    
frame=11422
fps=29.55
stream_0_0_q=23.0
bitrate=6316.1kbits/s
total_size=360710192
out_time_us=456880000
out_time_ms=456880000
out_time=00:07:36.880000
dup_frames=0
drop_frames=0
speed=1.18x
progress=continue
frame=11546 fps= 29 q=23.0 size=  356608KiB time=00:07:41.88 bitrate=6324.9kbits/s speed=1.18x    
frame=11546
fps=29.49
stream_0_0_q=23.0
bitrate=6324.9kbits/s
total_size=365166640
out_time_us=461880000
out_time_ms=461880000
out_time=00:07:41.880000
dup_frames=0
drop_frames=0
speed=1.18x
progress=continue
frame=11683 fps= 29 q=23.0 size=  360704KiB time=00:07:47.36 bitrate=6322.5kbits/s speed=1.18x    
frame=11683
fps=29.46
stream_0_0_q=23.0
bitrate=6322.5kbits/s
total_size=369360944
out_time_us=467360000
out_time_ms=467360000
out_time=00:07:47.360000
dup_frames=0
drop_frames=0
speed=1.18x
progress=continue
frame=11794 fps= 29 q=23.0 size=  365824KiB time=00:07:51.80 bitrate=6351.9kbits/s speed=1.17x    
frame=11794
fps=29.36
stream_0_0_q=23.0
bitrate=6351.9kbits/s
total_size=374603824
out_time_us=471800000
out_time_ms=471800000
out_time=00:07:51.800000
dup_frames=0
drop_frames=0
speed=1.17x
progress=continue
frame=11894 fps= 29 q=23.0 size=  370688KiB time=00:07:55.80 bitrate=6382.3kbits/s speed=1.17x    
frame=11894
fps=29.25
stream_0_0_q=23.0
bitrate=6382.3kbits/s
total_size=379584560
out_time_us=475800000
out_time_ms=475800000
out_time=00:07:55.800000
dup_frames=0
drop_frames=0
speed=1.17x
progress=continue
frame=12006 fps= 29 q=23.0 size=  375552KiB time=00:08:00.28 bitrate=6405.7kbits/s speed=1.17x    
frame=12006
fps=29.16
stream_0_0_q=23.0
bitrate=6405.7kbits/s
total_size=384565296
out_time_us=480280000
out_time_ms=480280000
out_time=00:08:00.280000
dup_frames=0
drop_frames=0
speed=1.17x
progress=continue
frame=12127 fps= 29 q=23.0 size=  380416KiB time=00:08:05.12 bitrate=6423.9kbits/s speed=1.16x    
frame=12127
fps=29.10
stream_0_0_q=23.0
bitrate=6423.9kbits/s
total_size=389546032
out_time_us=485120000
out_time_ms=485120000
out_time=00:08:05.120000
dup_frames=0
drop_frames=0
speed=1.16x
progress=continue
frame=12249 fps= 29 q=23.0 size=  384768KiB time=00:08:10.00 bitrate=6432.7kbits/s speed=1.16x    
frame=12249
fps=29.04
stream_0_0_q=23.0
bitrate=6432.7kbits/s
total_size=394002480
out_time_us=490000000
out_time_ms=490000000
out_time=00:08:10.000000
dup_frames=0
drop_frames=0
speed=1.16x
progress=continue
frame=12363 fps= 29 q=23.0 size=  389120KiB time=00:08:14.56 bitrate=6445.5kbits/s speed=1.16x    
frame=12363
fps=28.96
stream_0_0_q=23.0
bitrate=6445.5kbits/s
total_size=398458928
out_time_us=494560000
out_time_ms=494560000
out_time=00:08:14.560000
dup_frames=0
drop_frames=0
speed=1.16x
progress=continue
frame=12465 fps= 29 q=20.0 size=  394240KiB time=00:08:18.64 bitrate=6476.8kbits/s speed=1.15x    
frame=12465
fps=28.86
stream_0_0_q=20.0
bitrate=6476.8kbits/s
total_size=403701808
out_time_us=498640000
out_time_ms=498640000
out_time=00:08:18.640000
dup_frames=0
drop_frames=0
speed=1.15x
progress=continue
frame=12593 fps= 29 q=23.0 size=  398592KiB time=00:08:23.76 bitrate=6481.8kbits/s speed=1.15x    
frame=12593
fps=28.83
stream_0_0_q=23.0
bitrate=6481.8kbits/s
total_size=408158256
out_time_us=503760000
out_time_ms=503760000
out_time=00:08:23.760000
dup_frames=0
drop_frames=0
speed=1.15x
progress=continue
frame=12711 fps= 29 q=23.0 size=  404224KiB time=00:08:28.44 bitrate=6512.9kbits/s speed=1.15x    
frame=12711
fps=28.76
stream_0_0_q=23.0
bitrate=6512.9kbits/s
total_size=413925424
out_time_us=508440000
out_time_ms=508440000
out_time=00:08:28.440000
dup_frames=0
drop_frames=0
speed=1.15x
progress=continue
frame=12829 fps= 29 q=23.0 size=  409600KiB time=00:08:33.20 bitrate=6538.3kbits/s speed=1.15x    
frame=12829
fps=28.70
stream_0_0_q=23.0
bitrate=6538.3kbits/s
total_size=419430448
out_time_us=513200000
out_time_ms=513200000
out_time=00:08:33.200000
dup_frames=0
drop_frames=0
speed=1.15x
progress=continue
frame=12939 fps= 29 q=23.0 size=  413440KiB time=00:08:37.60 bitrate=6543.5kbits/s speed=1.15x    
frame=12939
fps=28.63
stream_0_0_q=23.0
bitrate=6543.5kbits/s
total_size=423362608
out_time_us=517600000
out_time_ms=517600000
out_time=00:08:37.600000
dup_frames=0
drop_frames=0
speed=1.15x
progress=continue
frame=13059 fps= 29 q=23.0 size=  418560KiB time=00:08:42.36 bitrate=6564.1kbits/s speed=1.14x    
frame=13059
fps=28.57
stream_0_0_q=23.0
bitrate=6564.1kbits/s
total_size=428605488
out_time_us=522360000
out_time_ms=522360000
out_time=00:08:42.360000
dup_frames=0
drop_frames=0
speed=1.14x
progress=continue
frame=13181 fps= 29 q=23.0 size=  422912KiB time=00:08:47.28 bitrate=6570.5kbits/s speed=1.14x    
frame=13181
fps=28.53
stream_0_0_q=23.0
bitrate=6570.5kbits/s
total_size=433061936
out_time_us=527280000
out_time_ms=527280000
out_time=00:08:47.280000
dup_frames=0
drop_frames=0
speed=1.14x
progress=continue
frame=13315 fps= 29 q=20.0 size=  427264KiB time=00:08:52.64 bitrate=6571.3kbits/s speed=1.14x    
frame=13315
fps=28.51
stream_0_0_q=20.0
bitrate=6571.3kbits/s
total_size=437518384
out_time_us=532640000
out_time_ms=532640000
out_time=00:08:52.640000
dup_frames=0
drop_frames=0
speed=1.14x
progress=continue
frame=13466 fps= 29 q=23.0 size=  431872KiB time=00:08:58.68 bitrate=6567.7kbits/s speed=1.14x    
frame=13466
fps=28.52
stream_0_0_q=23.0
bitrate=6567.7kbits/s
total_size=442236976
out_time_us=538680000
out_time_ms=538680000
out_time=00:08:58.680000
dup_frames=0
drop_frames=0
speed=1.14x
progress=continue
frame=13596 fps= 28 q=23.0 size=  436224KiB time=00:09:03.88 bitrate=6570.5kbits/s speed=1.14x    
frame=13596
fps=28.50
stream_0_0_q=23.0
bitrate=6570.5kbits/s
total_size=446693424
out_time_us=543880000
out_time_ms=543880000
out_time=00:09:03.880000
dup_frames=0
drop_frames=0
speed=1.14x
progress=continue
frame=13736 fps= 28 q=23.0 size=  440832KiB time=00:09:09.48 bitrate=6572.2kbits/s speed=1.14x    
frame=13736
fps=28.49
stream_0_0_q=23.0
bitrate=6572.2kbits/s
total_size=451412016
out_time_us=549480000
out_time_ms=549480000
out_time=00:09:09.480000
dup_frames=0
drop_frames=0
speed=1.14x
progress=continue
frame=13853 fps= 28 q=23.0 size=  445952KiB time=00:09:14.16 bitrate=6592.4kbits/s speed=1.14x    
frame=13853
fps=28.44
stream_0_0_q=23.0
bitrate=6592.4kbits/s
total_size=456654896
out_time_us=554160000
out_time_ms=554160000
out_time=00:09:14.160000
dup_frames=0
drop_frames=0
speed=1.14x
progress=continue
frame=13977 fps= 28 q=23.0 size=  453120KiB time=00:09:19.12 bitrate=6638.9kbits/s speed=1.14x    
frame=13977
fps=28.40
stream_0_0_q=23.0
bitrate=6638.9kbits/s
total_size=463994928
out_time_us=559120000
out_time_ms=559120000
out_time=00:09:19.120000
dup_frames=0
drop_frames=0
speed=1.14x
progress=continue
frame=14066 fps= 28 q=23.0 size=  467200KiB time=00:09:22.68 bitrate=6801.9kbits/s speed=1.13x    
frame=14066
fps=28.29
stream_0_0_q=23.0
bitrate=6801.9kbits/s
total_size=478412848
out_time_us=562680000
out_time_ms=562680000
out_time=00:09:22.680000
dup_frames=0
drop_frames=0
speed=1.13x
progress=continue
frame=14156 fps= 28 q=23.0 size=  481280KiB time=00:09:26.28 bitrate=6962.4kbits/s speed=1.13x    
frame=14156
fps=28.19
stream_0_0_q=23.0
bitrate=6962.4kbits/s
total_size=492830768
out_time_us=566280000
out_time_ms=566280000
out_time=00:09:26.280000
dup_frames=0
drop_frames=0
speed=1.13x
progress=continue
frame=14236 fps= 28 q=23.0 size=  485376KiB time=00:09:29.44 bitrate=6982.7kbits/s speed=1.12x    
frame=14236
fps=28.07
stream_0_0_q=23.0
bitrate=6982.7kbits/s
total_size=497025072
out_time_us=569440000
out_time_ms=569440000
out_time=00:09:29.440000
dup_frames=0
drop_frames=0
speed=1.12x
progress=continue
frame=14345 fps= 28 q=23.0 size=  489984KiB time=00:09:33.84 bitrate=6994.9kbits/s speed=1.12x    
frame=14345
fps=28.00
stream_0_0_q=23.0
bitrate=6994.9kbits/s
total_size=501743664
out_time_us=573840000
out_time_ms=573840000
out_time=00:09:33.840000
dup_frames=0
drop_frames=0
speed=1.12x
progress=continue
frame=14478 fps= 28 q=23.0 size=  494592KiB time=00:09:39.16 bitrate=6995.8kbits/s speed=1.12x    
frame=14478
fps=27.99
stream_0_0_q=23.0
bitrate=6995.8kbits/s
total_size=506462256
out_time_us=579160000
out_time_ms=579160000
out_time=00:09:39.160000
dup_frames=0
drop_frames=0
speed=1.12x
progress=continue
frame=14641 fps= 28 q=23.0 size=  498944KiB time=00:09:45.68 bitrate=6978.8kbits/s speed=1.12x    
frame=14641
fps=28.03
stream_0_0_q=23.0
bitrate=6978.8kbits/s
total_size=510918704
out_time_us=585680000
out_time_ms=585680000
out_time=00:09:45.680000
dup_frames=0
drop_frames=0
speed=1.12x
progress=continue
frame=14818 fps= 28 q=23.0 size=  503552KiB time=00:09:52.76 bitrate=6959.1kbits/s speed=1.12x    
frame=14818
fps=28.10
stream_0_0_q=23.0
bitrate=6959.1kbits/s
total_size=515637296
out_time_us=592760000
out_time_ms=592760000
out_time=00:09:52.760000
dup_frames=0
drop_frames=0
speed=1.12x
progress=continue
frame=14954 fps= 28 q=23.0 size=  512768KiB time=00:09:58.20 bitrate=7022.1kbits/s speed=1.12x    
frame=14954
fps=28.09
stream_0_0_q=23.0
bitrate=7022.1kbits/s
total_size=525074480
out_time_us=598200000
out_time_ms=598200000
out_time=00:09:58.200000
dup_frames=0
drop_frames=0
speed=1.12x
progress=continue
frame=15088 fps= 28 q=23.0 size=  522240KiB time=00:10:03.56 bitrate=7088.3kbits/s speed=1.12x    
frame=15088
fps=28.08
stream_0_0_q=23.0
bitrate=7088.3kbits/s
total_size=534773808
out_time_us=603560000
out_time_ms=603560000
out_time=00:10:03.560000
dup_frames=0
drop_frames=0
speed=1.12x
progress=continue
frame=15209 fps= 28 q=23.0 size=  528128KiB time=00:10:08.40 bitrate=7111.2kbits/s speed=1.12x    
frame=15209
fps=28.04
stream_0_0_q=23.0
bitrate=7111.2kbits/s
total_size=540803120
out_time_us=608400000
out_time_ms=608400000
out_time=00:10:08.400000
dup_frames=0
drop_frames=0
speed=1.12x
progress=continue
frame=15331 fps= 28 q=23.0 size=  534528KiB time=00:10:13.28 bitrate=7140.1kbits/s speed=1.12x    
frame=15331
fps=28.01
stream_0_0_q=23.0
bitrate=7140.1kbits/s
total_size=547356720
out_time_us=613280000
out_time_ms=613280000
out_time=00:10:13.280000
dup_frames=0
drop_frames=0
speed=1.12x
progress=continue
frame=15435 fps= 28 q=23.0 size=  537600KiB time=00:10:17.44 bitrate=7132.7kbits/s speed=1.12x    
frame=15435
fps=27.94
stream_0_0_q=23.0
bitrate=7132.7kbits/s
total_size=550502448
out_time_us=617440000
out_time_ms=617440000
out_time=00:10:17.440000
dup_frames=0
drop_frames=0
speed=1.12x
progress=continue
frame=15558 fps= 28 q=23.0 size=  545536KiB time=00:10:22.36 bitrate=7180.8kbits/s speed=1.12x    
frame=15558
fps=27.91
stream_0_0_q=23.0
bitrate=7180.8kbits/s
total_size=558628912
out_time_us=622360000
out_time_ms=622360000
out_time=00:10:22.360000
dup_frames=0
drop_frames=0
speed=1.12x
progress=continue
frame=15670 fps= 28 q=23.0 size=  551168KiB time=00:10:26.80 bitrate=7203.5kbits/s speed=1.11x    
frame=15670
fps=27.86
stream_0_0_q=23.0
bitrate=7203.5kbits/s
total_size=564396080
out_time_us=626800000
out_time_ms=626800000
out_time=00:10:26.800000
dup_frames=0
drop_frames=0
speed=1.11x
progress=continue
frame=15806 fps= 28 q=23.0 size=  555264KiB time=00:10:32.28 bitrate=7194.2kbits/s speed=1.11x    
frame=15806
fps=27.85
stream_0_0_q=23.0
bitrate=7194.2kbits/s
total_size=568590384
out_time_us=632280000
out_time_ms=632280000
out_time=00:10:32.280000
dup_frames=0
drop_frames=0
speed=1.11x
progress=continue
frame=15939 fps= 28 q=23.0 size=  559104KiB time=00:10:37.60 bitrate=7183.5kbits/s speed=1.11x    
frame=15939
fps=27.84
stream_0_0_q=23.0
bitrate=7183.5kbits/s
total_size=572522544
out_time_us=637600000
out_time_ms=637600000
out_time=00:10:37.600000
dup_frames=0
drop_frames=0
speed=1.11x
progress=continue
frame=16067 fps= 28 q=23.0 size=  563200KiB time=00:10:42.68 bitrate=7178.9kbits/s speed=1.11x    
frame=16067
fps=27.82
stream_0_0_q=23.0
bitrate=7178.9kbits/s
total_size=576716848
out_time_us=642680000
out_time_ms=642680000
out_time=00:10:42.680000
dup_frames=0
drop_frames=0
speed=1.11x
progress=continue
frame=16178 fps= 28 q=23.0 size=  566528KiB time=00:10:47.16 bitrate=7171.3kbits/s speed=1.11x    
frame=16178
fps=27.77
stream_0_0_q=23.0
bitrate=7171.3kbits/s
total_size=580124720
out_time_us=647160000
out_time_ms=647160000
out_time=00:10:47.160000
dup_frames=0
drop_frames=0
speed=1.11x
progress=continue
frame=16296 fps= 28 q=23.0 size=  570112KiB time=00:10:51.88 bitrate=7164.4kbits/s speed=1.11x    
frame=16296
fps=27.73
stream_0_0_q=23.0
bitrate=7164.4kbits/s
total_size=583794736
out_time_us=651880000
out_time_ms=651880000
out_time=00:10:51.880000
dup_frames=0
drop_frames=0
speed=1.11x
progress=continue
frame=16432 fps= 28 q=23.0 size=  574208KiB time=00:10:57.32 bitrate=7156.2kbits/s speed=1.11x    
frame=16432
fps=27.73
stream_0_0_q=23.0
bitrate=7156.2kbits/s
total_size=587989040
out_time_us=657320000
out_time_ms=657320000
out_time=00:10:57.320000
dup_frames=0
drop_frames=0
speed=1.11x
progress=continue
frame=16571 fps= 28 q=23.0 size=  578048KiB time=00:11:02.88 bitrate=7143.6kbits/s speed=1.11x    
frame=16571
fps=27.73
stream_0_0_q=23.0
bitrate=7143.6kbits/s
total_size=591921200
out_time_us=662880000
out_time_ms=662880000
out_time=00:11:02.880000
dup_frames=0
drop_frames=0
speed=1.11x
progress=continue
frame=16709 fps= 28 q=23.0 size=  582400KiB time=00:11:08.40 bitrate=7138.0kbits/s speed=1.11x    
frame=16709
fps=27.73
stream_0_0_q=23.0
bitrate=7138.0kbits/s
total_size=596377648
out_time_us=668400000
out_time_ms=668400000
out_time=00:11:08.400000
dup_frames=0
drop_frames=0
speed=1.11x
progress=continue
frame=16874 fps= 28 q=23.0 size=  588800KiB time=00:11:15.00 bitrate=7145.9kbits/s speed=1.11x    
frame=16874
fps=27.77
stream_0_0_q=23.0
bitrate=7145.9kbits/s
total_size=602931248
out_time_us=675000000
out_time_ms=675000000
out_time=00:11:15.000000
dup_frames=0
drop_frames=0
speed=1.11x
progress=continue
frame=17029 fps= 28 q=23.0 size=  593152KiB time=00:11:21.20 bitrate=7133.1kbits/s speed=1.11x    
frame=17029
fps=27.79
stream_0_0_q=23.0
bitrate=7133.1kbits/s
total_size=607387696
out_time_us=681200000
out_time_ms=681200000
out_time=00:11:21.200000
dup_frames=0
drop_frames=0
speed=1.11x
progress=continue
frame=17154 fps= 28 q=23.0 size=  598016KiB time=00:11:26.20 bitrate=7139.2kbits/s speed=1.11x    
frame=17154
fps=27.77
stream_0_0_q=23.0
bitrate=7139.2kbits/s
total_size=612368432
out_time_us=686200000
out_time_ms=686200000
out_time=00:11:26.200000
dup_frames=0
drop_frames=0
speed=1.11x
progress=continue
frame=17279 fps= 28 q=23.0 size=  602368KiB time=00:11:31.20 bitrate=7139.2kbits/s speed=1.11x    
frame=17279
fps=27.75
stream_0_0_q=23.0
bitrate=7139.2kbits/s
total_size=616824880
out_time_us=691200000
out_time_ms=691200000
out_time=00:11:31.200000
dup_frames=0
drop_frames=0
speed=1.11x
progress=continue
frame=17405 fps= 28 q=23.0 size=  606208KiB time=00:11:36.24 bitrate=7132.7kbits/s speed=1.11x    
frame=17405
fps=27.73
stream_0_0_q=23.0
bitrate=7132.7kbits/s
total_size=620757040
out_time_us=696240000
out_time_ms=696240000
out_time=00:11:36.240000
dup_frames=0
drop_frames=0
speed=1.11x
progress=continue
frame=17547 fps= 28 q=23.0 size=  610304KiB time=00:11:41.92 bitrate=7122.8kbits/s speed=1.11x    
frame=17547
fps=27.73
stream_0_0_q=23.0
bitrate=7122.8kbits/s
total_size=624951344
out_time_us=701920000
out_time_ms=701920000
out_time=00:11:41.920000
dup_frames=0
drop_frames=0
speed=1.11x
progress=continue
frame=17712 fps= 28 q=23.0 size=  614656KiB time=00:11:48.52 bitrate=7106.7kbits/s speed=1.11x    
frame=17712
fps=27.77
stream_0_0_q=23.0
bitrate=7106.7kbits/s
total_size=629407792
out_time_us=708520000
out_time_ms=708520000
out_time=00:11:48.520000
dup_frames=0
drop_frames=0
speed=1.11x
progress=continue
frame=17855 fps= 28 q=23.0 size=  619008KiB time=00:11:54.24 bitrate=7099.7kbits/s speed=1.11x    
frame=17855
fps=27.78
stream_0_0_q=23.0
bitrate=7099.7kbits/s
total_size=633864240
out_time_us=714240000
out_time_ms=714240000
out_time=00:11:54.240000
dup_frames=0
drop_frames=0
speed=1.11x
progress=continue
frame=17980 fps= 28 q=23.0 size=  623104KiB time=00:11:59.24 bitrate=7097.0kbits/s speed=1.11x    
frame=17980
fps=27.75
stream_0_0_q=23.0
bitrate=7097.0kbits/s
total_size=638058544
out_time_us=719240000
out_time_ms=719240000
out_time=00:11:59.240000
dup_frames=0
drop_frames=0
speed=1.11x
progress=continue
frame=18114 fps= 28 q=23.0 size=  626944KiB time=00:12:04.60 bitrate=7087.9kbits/s speed=1.11x    
frame=18114
fps=27.74
stream_0_0_q=23.0
bitrate=7087.9kbits/s
total_size=641990704
out_time_us=724600000
out_time_ms=724600000
out_time=00:12:04.600000
dup_frames=0
drop_frames=0
speed=1.11x
progress=continue
frame=18261 fps= 28 q=23.0 size=  631040KiB time=00:12:10.48 bitrate=7076.8kbits/s speed=1.11x    
frame=18261
fps=27.76
stream_0_0_q=23.0
bitrate=7076.8kbits/s
total_size=646185008
out_time_us=730480000
out_time_ms=730480000
out_time=00:12:10.480000
dup_frames=0
drop_frames=0
speed=1.11x
progress=continue
frame=18389 fps= 28 q=23.0 size=  635392KiB time=00:12:15.60 bitrate=7076.0kbits/s speed=1.11x    
frame=18389
fps=27.74
stream_0_0_q=23.0
bitrate=7076.0kbits/s
total_size=650641456
out_time_us=735600000
out_time_ms=735600000
out_time=00:12:15.600000
dup_frames=0
drop_frames=0
speed=1.11x
progress=continue
frame=18528 fps= 28 q=23.0 size=  639488KiB time=00:12:21.16 bitrate=7068.2kbits/s speed=1.11x    
frame=18528
fps=27.74
stream_0_0_q=23.0
bitrate=7068.2kbits/s
total_size=654835760
out_time_us=741160000
out_time_ms=741160000
out_time=00:12:21.160000
dup_frames=0
drop_frames=0
speed=1.11x
progress=continue
frame=18615 fps= 28 q=20.0 size=  643072KiB time=00:12:24.64 bitrate=7074.6kbits/s speed=1.11x    
frame=18615
fps=27.66
stream_0_0_q=20.0
bitrate=7074.6kbits/s
total_size=658505776
out_time_us=744640000
out_time_ms=744640000
out_time=00:12:24.640000
dup_frames=0
drop_frames=0
speed=1.11x
progress=continue
frame=18719 fps= 28 q=23.0 size=  647424KiB time=00:12:28.80 bitrate=7082.9kbits/s speed= 1.1x    
frame=18719
fps=27.61
stream_0_0_q=23.0
bitrate=7082.9kbits/s
total_size=662962224
out_time_us=748800000
out_time_ms=748800000
out_time=00:12:28.800000
dup_frames=0
drop_frames=0
speed= 1.1x
progress=continue
frame=18845 fps= 28 q=23.0 size=  652288KiB time=00:12:33.84 bitrate=7088.4kbits/s speed= 1.1x    
frame=18845
fps=27.59
stream_0_0_q=23.0
bitrate=7088.4kbits/s
total_size=667942960
out_time_us=753840000
out_time_ms=753840000
out_time=00:12:33.840000
dup_frames=0
drop_frames=0
speed= 1.1x
progress=continue
frame=19009 fps= 28 q=23.0 size=  656896KiB time=00:12:40.40 bitrate=7076.9kbits/s speed=1.11x    
frame=19009
fps=27.63
stream_0_0_q=23.0
bitrate=7076.9kbits/s
total_size=672661552
out_time_us=760400000
out_time_ms=760400000
out_time=00:12:40.400000
dup_frames=0
drop_frames=0
speed=1.11x
progress=continue
frame=19165 fps= 28 q=20.0 size=  662528KiB time=00:12:46.64 bitrate=7079.5kbits/s speed=1.11x    
frame=19165
fps=27.65
stream_0_0_q=20.0
bitrate=7079.5kbits/s
total_size=678428720
out_time_us=766640000
out_time_ms=766640000
out_time=00:12:46.640000
dup_frames=0
drop_frames=0
speed=1.11x
progress=continue
frame=19290 fps= 28 q=20.0 size=  668928KiB time=00:12:51.64 bitrate=7101.6kbits/s speed=1.11x    
frame=19290
fps=27.63
stream_0_0_q=20.0
bitrate=7101.6kbits/s
total_size=684982320
out_time_us=771640000
out_time_ms=771640000
out_time=00:12:51.640000
dup_frames=0
drop_frames=0
speed=1.11x
progress=continue
frame=19415 fps= 28 q=20.0 size=  676608KiB time=00:12:56.64 bitrate=7136.9kbits/s speed= 1.1x    
frame=19415
fps=27.61
stream_0_0_q=20.0
bitrate=7136.9kbits/s
total_size=692846640
out_time_us=776640000
out_time_ms=776640000
out_time=00:12:56.640000
dup_frames=0
drop_frames=0
speed= 1.1x
progress=continue
frame=19556 fps= 28 q=23.0 size=  681216KiB time=00:13:02.28 bitrate=7133.7kbits/s speed= 1.1x    
frame=19556
fps=27.61
stream_0_0_q=23.0
bitrate=7133.7kbits/s
total_size=697565232
out_time_us=782280000
out_time_ms=782280000
out_time=00:13:02.280000
dup_frames=0
drop_frames=0
speed= 1.1x
progress=continue
frame=19700 fps= 28 q=23.0 size=  685568KiB time=00:13:08.04 bitrate=7126.8kbits/s speed= 1.1x    
frame=19700
fps=27.62
stream_0_0_q=23.0
bitrate=7126.8kbits/s
total_size=702021680
out_time_us=788040000
out_time_ms=788040000
out_time=00:13:08.040000
dup_frames=0
drop_frames=0
speed= 1.1x
progress=continue
frame=19857 fps= 28 q=23.0 size=  690688KiB time=00:13:14.32 bitrate=7123.2kbits/s speed=1.11x    
frame=19857
fps=27.65
stream_0_0_q=23.0
bitrate=7123.2kbits/s
total_size=707264560
out_time_us=794320000
out_time_ms=794320000
out_time=00:13:14.320000
dup_frames=0
drop_frames=0
speed=1.11x
progress=continue
frame=19998 fps= 28 q=23.0 size=  694784KiB time=00:13:19.96 bitrate=7114.9kbits/s speed=1.11x    
frame=19998
fps=27.65
stream_0_0_q=23.0
bitrate=7114.9kbits/s
total_size=711458864
out_time_us=799960000
out_time_ms=799960000
out_time=00:13:19.960000
dup_frames=0
drop_frames=0
speed=1.11x
progress=continue
frame=20143 fps= 28 q=23.0 size=  699136KiB time=00:13:25.76 bitrate=7108.0kbits/s speed=1.11x    
frame=20143
fps=27.66
stream_0_0_q=23.0
bitrate=7108.0kbits/s
total_size=715915312
out_time_us=805760000
out_time_ms=805760000
out_time=00:13:25.760000
dup_frames=0
drop_frames=0
speed=1.11x
progress=continue
frame=20287 fps= 28 q=23.0 size=  703488KiB time=00:13:31.52 bitrate=7101.5kbits/s speed=1.11x    
frame=20287
fps=27.67
stream_0_0_q=23.0
bitrate=7101.5kbits/s
total_size=720371760
out_time_us=811520000
out_time_ms=811520000
out_time=00:13:31.520000
dup_frames=0
drop_frames=0
speed=1.11x
progress=continue
frame=20442 fps= 28 q=23.0 size=  708096KiB time=00:13:37.72 bitrate=7093.8kbits/s speed=1.11x    
frame=20442
fps=27.69
stream_0_0_q=23.0
bitrate=7093.8kbits/s
total_size=725090352
out_time_us=817720000
out_time_ms=817720000
out_time=00:13:37.720000
dup_frames=0
drop_frames=0
speed=1.11x
progress=continue
frame=20592 fps= 28 q=23.0 size=  712448KiB time=00:13:43.72 bitrate=7085.4kbits/s speed=1.11x    
frame=20592
fps=27.70
stream_0_0_q=23.0
bitrate=7085.4kbits/s
total_size=729546800
out_time_us=823720000
out_time_ms=823720000
out_time=00:13:43.720000
dup_frames=0
drop_frames=0
speed=1.11x
progress=continue
frame=20740 fps= 28 q=20.0 size=  717056KiB time=00:13:49.64 bitrate=7080.3kbits/s speed=1.11x    
frame=20740
fps=27.71
stream_0_0_q=20.0
bitrate=7080.3kbits/s
total_size=734265392
out_time_us=829640000
out_time_ms=829640000
out_time=00:13:49.640000
dup_frames=0
drop_frames=0
speed=1.11x
progress=continue
frame=20882 fps= 28 q=23.0 size=  721408KiB time=00:13:55.28 bitrate=7075.2kbits/s speed=1.11x    
frame=20882
fps=27.72
stream_0_0_q=23.0
bitrate=7075.2kbits/s
total_size=738721840
out_time_us=835280000
out_time_ms=835280000
out_time=00:13:55.280000
dup_frames=0
drop_frames=0
speed=1.11x
progress=continue
frame=21035 fps= 28 q=23.0 size=  726272KiB time=00:14:01.40 bitrate=7071.1kbits/s speed=1.11x    
frame=21035
fps=27.74
stream_0_0_q=23.0
bitrate=7071.1kbits/s
total_size=743702576
out_time_us=841400000
out_time_ms=841400000
out_time=00:14:01.400000
dup_frames=0
drop_frames=0
speed=1.11x
progress=continue
frame=21183 fps= 28 q=23.0 size=  731136KiB time=00:14:07.36 bitrate=7068.4kbits/s speed=1.11x    
frame=21183
fps=27.75
stream_0_0_q=23.0
bitrate=7068.4kbits/s
total_size=748683312
out_time_us=847360000
out_time_ms=847360000
out_time=00:14:07.360000
dup_frames=0
drop_frames=0
speed=1.11x
progress=continue
frame=21342 fps= 28 q=23.0 size=  735488KiB time=00:14:13.72 bitrate=7057.5kbits/s speed=1.11x    
frame=21342
fps=27.77
stream_0_0_q=23.0
bitrate=7057.5kbits/s
total_size=753139760
out_time_us=853720000
out_time_ms=853720000
out_time=00:14:13.720000
dup_frames=0
drop_frames=0
speed=1.11x
progress=continue
frame=21489 fps= 28 q=23.0 size=  740096KiB time=00:14:19.60 bitrate=7053.1kbits/s speed=1.11x    
frame=21489
fps=27.78
stream_0_0_q=23.0
bitrate=7053.1kbits/s
total_size=757858352
out_time_us=859600000
out_time_ms=859600000
out_time=00:14:19.600000
dup_frames=0
drop_frames=0
speed=1.11x
progress=continue
frame=21610 fps= 28 q=23.0 size=  744704KiB time=00:14:24.40 bitrate=7057.6kbits/s speed=1.11x    
frame=21610
fps=27.76
stream_0_0_q=23.0
bitrate=7057.6kbits/s
total_size=762576944
out_time_us=864400000
out_time_ms=864400000
out_time=00:14:24.400000
dup_frames=0
drop_frames=0
speed=1.11x
progress=continue
frame=21733 fps= 28 q=23.0 size=  749056KiB time=00:14:29.36 bitrate=7058.4kbits/s speed=1.11x    
frame=21733
fps=27.74
stream_0_0_q=23.0
bitrate=7058.4kbits/s
total_size=767033392
out_time_us=869360000
out_time_ms=869360000
out_time=00:14:29.360000
dup_frames=0
drop_frames=0
speed=1.11x
progress=continue
frame=21867 fps= 28 q=23.0 size=  752896KiB time=00:14:34.68 bitrate=7051.4kbits/s speed=1.11x    
frame=21867
fps=27.73
stream_0_0_q=23.0
bitrate=7051.4kbits/s
total_size=770965552
out_time_us=874680000
out_time_ms=874680000
out_time=00:14:34.680000
dup_frames=0
drop_frames=0
speed=1.11x
progress=continue
frame=22009 fps= 28 q=23.0 size=  757248KiB time=00:14:40.40 bitrate=7046.1kbits/s speed=1.11x    
frame=22009
fps=27.73
stream_0_0_q=23.0
bitrate=7046.1kbits/s
total_size=775422000
out_time_us=880400000
out_time_ms=880400000
out_time=00:14:40.400000
dup_frames=0
drop_frames=0
speed=1.11x
progress=continue
frame=22137 fps= 28 q=23.0 size=  761600KiB time=00:14:45.52 bitrate=7045.6kbits/s speed=1.11x    
frame=22137
fps=27.72
stream_0_0_q=23.0
bitrate=7045.6kbits/s
total_size=779878448
out_time_us=885520000
out_time_ms=885520000
out_time=00:14:45.520000
dup_frames=0
drop_frames=0
speed=1.11x
progress=continue
frame=22281 fps= 28 q=23.0 size=  766208KiB time=00:14:51.28 bitrate=7042.4kbits/s speed=1.11x    
frame=22281
fps=27.72
stream_0_0_q=23.0
bitrate=7042.4kbits/s
total_size=784597040
out_time_us=891280000
out_time_ms=891280000
out_time=00:14:51.280000
dup_frames=0
drop_frames=0
speed=1.11x
progress=continue
frame=22417 fps= 28 q=23.0 size=  771072KiB time=00:14:56.72 bitrate=7044.1kbits/s speed=1.11x    
frame=22417
fps=27.72
stream_0_0_q=23.0
bitrate=7044.1kbits/s
total_size=789577776
out_time_us=896720000
out_time_ms=896720000
out_time=00:14:56.720000
dup_frames=0
drop_frames=0
speed=1.11x
progress=continue
frame=22538 fps= 28 q=23.0 size=  775936KiB time=00:15:01.56 bitrate=7050.5kbits/s speed=1.11x    
frame=22538
fps=27.70
stream_0_0_q=23.0
bitrate=7050.5kbits/s
total_size=794558512
out_time_us=901560000
out_time_ms=901560000
out_time=00:15:01.560000
dup_frames=0
drop_frames=0
speed=1.11x
progress=continue
frame=22654 fps= 28 q=23.0 size=  780800KiB time=00:15:06.20 bitrate=7058.4kbits/s speed=1.11x    
frame=22654
fps=27.67
stream_0_0_q=23.0
bitrate=7058.4kbits/s
total_size=799539248
out_time_us=906200000
out_time_ms=906200000
out_time=00:15:06.200000
dup_frames=0
drop_frames=0
speed=1.11x
progress=continue
frame=22766 fps= 28 q=23.0 size=  785408KiB time=00:15:10.68 bitrate=7065.1kbits/s speed=1.11x    
frame=22766
fps=27.64
stream_0_0_q=23.0
bitrate=7065.1kbits/s
total_size=804257840
out_time_us=910680000
out_time_ms=910680000
out_time=00:15:10.680000
dup_frames=0
drop_frames=0
speed=1.11x
progress=continue
frame=22889 fps= 28 q=23.0 size=  795648KiB time=00:15:15.60 bitrate=7118.8kbits/s speed= 1.1x    
frame=22889
fps=27.62
stream_0_0_q=23.0
bitrate=7118.8kbits/s
total_size=814743600
out_time_us=915600000
out_time_ms=915600000
out_time=00:15:15.600000
dup_frames=0
drop_frames=0
speed= 1.1x
progress=continue
frame=23023 fps= 28 q=23.0 size=  800256KiB time=00:15:20.96 bitrate=7118.3kbits/s speed= 1.1x    
frame=23023
fps=27.61
stream_0_0_q=23.0
bitrate=7118.3kbits/s
total_size=819462192
out_time_us=920960000
out_time_ms=920960000
out_time=00:15:20.960000
dup_frames=0
drop_frames=0
speed= 1.1x
progress=continue
frame=23147 fps= 28 q=23.0 size=  804864KiB time=00:15:25.92 bitrate=7121.0kbits/s speed= 1.1x    
frame=23147
fps=27.59
stream_0_0_q=23.0
bitrate=7121.0kbits/s
total_size=824180784
out_time_us=925920000
out_time_ms=925920000
out_time=00:15:25.920000
dup_frames=0
drop_frames=0
speed= 1.1x
progress=continue
frame=23268 fps= 28 q=23.0 size=  809216KiB time=00:15:30.76 bitrate=7122.2kbits/s speed= 1.1x    
frame=23268
fps=27.57
stream_0_0_q=23.0
bitrate=7122.2kbits/s
total_size=828637232
out_time_us=930760000
out_time_ms=930760000
out_time=00:15:30.760000
dup_frames=0
drop_frames=0
speed= 1.1x
progress=continue
frame=23382 fps= 28 q=23.0 size=  815872KiB time=00:15:35.32 bitrate=7145.8kbits/s speed= 1.1x    
frame=23382
fps=27.54
stream_0_0_q=23.0
bitrate=7145.8kbits/s
total_size=835452976
out_time_us=935320000
out_time_ms=935320000
out_time=00:15:35.320000
dup_frames=0
drop_frames=0
speed= 1.1x
progress=continue
frame=23478 fps= 27 q=23.0 size=  829184KiB time=00:15:39.16 bitrate=7232.7kbits/s speed= 1.1x    
frame=23478
fps=27.49
stream_0_0_q=23.0
bitrate=7232.7kbits/s
total_size=849084464
out_time_us=939160000
out_time_ms=939160000
out_time=00:15:39.160000
dup_frames=0
drop_frames=0
speed= 1.1x
progress=continue
frame=23586 fps= 27 q=23.0 size=  835840KiB time=00:15:43.44 bitrate=7257.7kbits/s speed= 1.1x    
frame=23586
fps=27.46
stream_0_0_q=23.0
bitrate=7257.7kbits/s
total_size=855900208
out_time_us=943440000
out_time_ms=943440000
out_time=00:15:43.440000
dup_frames=0
drop_frames=0
speed= 1.1x
progress=continue
frame=23687 fps= 27 q=23.0 size=  840192KiB time=00:15:47.52 bitrate=7264.1kbits/s speed= 1.1x    
frame=23687
fps=27.42
stream_0_0_q=23.0
bitrate=7264.1kbits/s
total_size=860356656
out_time_us=947520000
out_time_ms=947520000
out_time=00:15:47.520000
dup_frames=0
drop_frames=0
speed= 1.1x
progress=continue
frame=23795 fps= 27 q=23.0 size=  845056KiB time=00:15:51.80 bitrate=7273.3kbits/s speed= 1.1x    
frame=23795
fps=27.38
stream_0_0_q=23.0
bitrate=7273.3kbits/s
total_size=865337392
out_time_us=951800000
out_time_ms=951800000
out_time=00:15:51.800000
dup_frames=0
drop_frames=0
speed= 1.1x
progress=continue
frame=23909 fps= 27 q=23.0 size=  848896KiB time=00:15:56.40 bitrate=7271.2kbits/s speed=1.09x    
frame=23909
fps=27.36
stream_0_0_q=23.0
bitrate=7271.2kbits/s
total_size=869269552
out_time_us=956400000
out_time_ms=956400000
out_time=00:15:56.400000
dup_frames=0
drop_frames=0
speed=1.09x
progress=continue
frame=24069 fps= 27 q=23.0 size=  853248KiB time=00:16:02.80 bitrate=7259.9kbits/s speed= 1.1x    
frame=24069
fps=27.38
stream_0_0_q=23.0
bitrate=7259.9kbits/s
total_size=873726000
out_time_us=962800000
out_time_ms=962800000
out_time=00:16:02.800000
dup_frames=0
drop_frames=0
speed= 1.1x
progress=continue
frame=24208 fps= 27 q=23.0 size=  857344KiB time=00:16:08.36 bitrate=7252.8kbits/s speed= 1.1x    
frame=24208
fps=27.38
stream_0_0_q=23.0
bitrate=7252.8kbits/s
total_size=877920304
out_time_us=968360000
out_time_ms=968360000
out_time=00:16:08.360000
dup_frames=0
drop_frames=0
speed= 1.1x
progress=continue
frame=24372 fps= 27 q=23.0 size=  861184KiB time=00:16:14.92 bitrate=7236.3kbits/s speed= 1.1x    
frame=24372
fps=27.41
stream_0_0_q=23.0
bitrate=7236.3kbits/s
total_size=881852464
out_time_us=974920000
out_time_ms=974920000
out_time=00:16:14.920000
dup_frames=0
drop_frames=0
speed= 1.1x
progress=continue
frame=24563 fps= 27 q=23.0 size=  865792KiB time=00:16:22.56 bitrate=7218.5kbits/s speed= 1.1x    
frame=24563
fps=27.47
stream_0_0_q=23.0
bitrate=7218.5kbits/s
total_size=886571056
out_time_us=982560000
out_time_ms=982560000
out_time=00:16:22.560000
dup_frames=0
drop_frames=0
speed= 1.1x
progress=continue
frame=24731 fps= 28 q=23.0 size=  870144KiB time=00:16:29.28 bitrate=7205.5kbits/s speed= 1.1x    
frame=24731
fps=27.51
stream_0_0_q=23.0
bitrate=7205.5kbits/s
total_size=891027504
out_time_us=989280000
out_time_ms=989280000
out_time=00:16:29.280000
dup_frames=0
drop_frames=0
speed= 1.1x
progress=continue
frame=24885 fps= 28 q=23.0 size=  873728KiB time=00:16:35.44 bitrate=7190.4kbits/s speed= 1.1x    
frame=24885
fps=27.53
stream_0_0_q=23.0
bitrate=7190.4kbits/s
total_size=894697520
out_time_us=995440000
out_time_ms=995440000
out_time=00:16:35.440000
dup_frames=0
drop_frames=0
speed= 1.1x
progress=continue
frame=25017 fps= 28 q=23.0 size=  877568KiB time=00:16:40.72 bitrate=7183.9kbits/s speed= 1.1x    
frame=25017
fps=27.52
stream_0_0_q=23.0
bitrate=7183.9kbits/s
total_size=898629680
out_time_us=1000720000
out_time_ms=1000720000
out_time=00:16:40.720000
dup_frames=0
drop_frames=0
speed= 1.1x
progress=continue
frame=25175 fps= 28 q=23.0 size=  881408KiB time=00:16:47.04 bitrate=7170.0kbits/s speed= 1.1x    
frame=25175
fps=27.54
stream_0_0_q=23.0
bitrate=7170.0kbits/s
total_size=902561840
out_time_us=1007040000
out_time_ms=1007040000
out_time=00:16:47.040000
dup_frames=0
drop_frames=0
speed= 1.1x
progress=continue
frame=25339 fps= 28 q=23.0 size=  885504KiB time=00:16:53.60 bitrate=7156.7kbits/s speed= 1.1x    
frame=25339
fps=27.57
stream_0_0_q=23.0
bitrate=7156.7kbits/s
total_size=906756144
out_time_us=1013600000
out_time_ms=1013600000
out_time=00:16:53.600000
dup_frames=0
drop_frames=0
speed= 1.1x
progress=continue
frame=25525 fps= 28 q=23.0 size=  889600KiB time=00:17:01.04 bitrate=7137.4kbits/s speed= 1.1x    
frame=25525
fps=27.62
stream_0_0_q=23.0
bitrate=7137.4kbits/s
total_size=910950448
out_time_us=1021040000
out_time_ms=1021040000
out_time=00:17:01.040000
dup_frames=0
drop_frames=0
speed= 1.1x
progress=continue
frame=25696 fps= 28 q=23.0 size=  893952KiB time=00:17:07.88 bitrate=7124.6kbits/s speed=1.11x    
frame=25696
fps=27.65
stream_0_0_q=23.0
bitrate=7124.6kbits/s
total_size=915406896
out_time_us=1027880000
out_time_ms=1027880000
out_time=00:17:07.880000
dup_frames=0
drop_frames=0
speed=1.11x
progress=continue
frame=25831 fps= 28 q=23.0 size=  898304KiB time=00:17:13.28 bitrate=7121.9kbits/s speed=1.11x    
frame=25831
fps=27.65
stream_0_0_q=23.0
bitrate=7121.9kbits/s
total_size=919863344
out_time_us=1033280000
out_time_ms=1033280000
out_time=00:17:13.280000
dup_frames=0
drop_frames=0
speed=1.11x
progress=continue
frame=25969 fps= 28 q=23.0 size=  902656KiB time=00:17:18.80 bitrate=7118.4kbits/s speed=1.11x    
frame=25969
fps=27.65
stream_0_0_q=23.0
bitrate=7118.4kbits/s
total_size=924319792
out_time_us=1038800000
out_time_ms=1038800000
out_time=00:17:18.800000
dup_frames=0
drop_frames=0
speed=1.11x
progress=continue
frame=26117 fps= 28 q=23.0 size=  906240KiB time=00:17:24.68 bitrate=7106.4kbits/s speed=1.11x    
frame=26117
fps=27.66
stream_0_0_q=23.0
bitrate=7106.4kbits/s
total_size=927989808
out_time_us=1044680000
out_time_ms=1044680000
out_time=00:17:24.680000
dup_frames=0
drop_frames=0
speed=1.11x
progress=continue
frame=26264 fps= 28 q=23.0 size=  910336KiB time=00:17:30.60 bitrate=7098.3kbits/s speed=1.11x    
frame=26264
fps=27.67
stream_0_0_q=23.0
bitrate=7098.3kbits/s
total_size=932184112
out_time_us=1050600000
out_time_ms=1050600000
out_time=00:17:30.600000
dup_frames=0
drop_frames=0
speed=1.11x
progress=continue
frame=26463 fps= 28 q=23.0 size=  914944KiB time=00:17:38.56 bitrate=7080.6kbits/s speed=1.11x    
frame=26463
fps=27.73
stream_0_0_q=23.0
bitrate=7080.6kbits/s
total_size=936902704
out_time_us=1058560000
out_time_ms=1058560000
out_time=00:17:38.560000
dup_frames=0
drop_frames=0
speed=1.11x
progress=continue
frame=26625 fps= 28 q=23.0 size=  919296KiB time=00:17:45.04 bitrate=7071.0kbits/s speed=1.11x    
frame=26625
fps=27.75
stream_0_0_q=23.0
bitrate=7071.0kbits/s
total_size=941359152
out_time_us=1065040000
out_time_ms=1065040000
out_time=00:17:45.040000
dup_frames=0
drop_frames=0
speed=1.11x
progress=continue
frame=26808 fps= 28 q=23.0 size=  924672KiB time=00:17:52.36 bitrate=7063.8kbits/s speed=1.11x    
frame=26808
fps=27.80
stream_0_0_q=23.0
bitrate=7063.8kbits/s
total_size=946864176
out_time_us=1072360000
out_time_ms=1072360000
out_time=00:17:52.360000
dup_frames=0
drop_frames=0
speed=1.11x
progress=continue
frame=26954 fps= 28 q=23.0 size=  929024KiB time=00:17:58.20 bitrate=7058.6kbits/s speed=1.11x    
frame=26954
fps=27.81
stream_0_0_q=23.0
bitrate=7058.6kbits/s
total_size=951320624
out_time_us=1078200000
out_time_ms=1078200000
out_time=00:17:58.200000
dup_frames=0
drop_frames=0
speed=1.11x
progress=continue
frame=27108 fps= 28 q=23.0 size=  933632KiB time=00:18:04.36 bitrate=7053.3kbits/s speed=1.11x    
frame=27108
fps=27.82
stream_0_0_q=23.0
bitrate=7053.3kbits/s
total_size=956039216
out_time_us=1084360000
out_time_ms=1084360000
out_time=00:18:04.360000
dup_frames=0
drop_frames=0
speed=1.11x
progress=continue
frame=27272 fps= 28 q=23.0 size=  937728KiB time=00:18:10.92 bitrate=7041.6kbits/s speed=1.11x    
frame=27272
fps=27.85
stream_0_0_q=23.0
bitrate=7041.6kbits/s
total_size=960233520
out_time_us=1090920000
out_time_ms=1090920000
out_time=00:18:10.920000
dup_frames=0
drop_frames=0
speed=1.11x
progress=continue
frame=27437 fps= 28 q=23.0 size=  942336KiB time=00:18:17.52 bitrate=7033.7kbits/s speed=1.11x    
frame=27437
fps=27.87
stream_0_0_q=23.0
bitrate=7033.7kbits/s
total_size=964952112
out_time_us=1097520000
out_time_ms=1097520000
out_time=00:18:17.520000
dup_frames=0
drop_frames=0
speed=1.11x
progress=continue
frame=27628 fps= 28 q=23.0 size=  946688KiB time=00:18:25.12 bitrate=7017.6kbits/s speed=1.12x    
frame=27628
fps=27.92
stream_0_0_q=23.0
bitrate=7017.6kbits/s
total_size=969408560
out_time_us=1105120000
out_time_ms=1105120000
out_time=00:18:25.120000
dup_frames=0
drop_frames=0
speed=1.12x
progress=continue
frame=27747 fps= 28 q=23.0 size=  950528KiB time=00:18:29.92 bitrate=7015.6kbits/s speed=1.12x    
frame=27747
fps=27.90
stream_0_0_q=23.0
bitrate=7015.6kbits/s
total_size=973340720
out_time_us=1109920000
out_time_ms=1109920000
out_time=00:18:29.920000
dup_frames=0
drop_frames=0
speed=1.12x
progress=continue
frame=27863 fps= 28 q=23.0 size=  955136KiB time=00:18:34.52 bitrate=7020.5kbits/s speed=1.12x    
frame=27863
fps=27.88
stream_0_0_q=23.0
bitrate=7020.5kbits/s
total_size=978059312
out_time_us=1114520000
out_time_ms=1114520000
out_time=00:18:34.520000
dup_frames=0
drop_frames=0
speed=1.12x
progress=continue
frame=27989 fps= 28 q=23.0 size=  963328KiB time=00:18:39.56 bitrate=7048.8kbits/s speed=1.11x    
frame=27989
fps=27.86
stream_0_0_q=23.0
bitrate=7048.8kbits/s
total_size=986447920
out_time_us=1119560000
out_time_ms=1119560000
out_time=00:18:39.560000
dup_frames=0
drop_frames=0
speed=1.11x
progress=continue
frame=28116 fps= 28 q=23.0 size=  970240KiB time=00:18:44.68 bitrate=7067.1kbits/s speed=1.11x    
frame=28116
fps=27.85
stream_0_0_q=23.0
bitrate=7067.1kbits/s
total_size=993525808
out_time_us=1124680000
out_time_ms=1124680000
out_time=00:18:44.680000
dup_frames=0
drop_frames=0
speed=1.11x
progress=continue
frame=28256 fps= 28 q=23.0 size=  973824KiB time=00:18:50.28 bitrate=7058.0kbits/s speed=1.11x    
frame=28256
fps=27.85
stream_0_0_q=23.0
bitrate=7058.0kbits/s
total_size=997195824
out_time_us=1130280000
out_time_ms=1130280000
out_time=00:18:50.280000
dup_frames=0
drop_frames=0
speed=1.11x
progress=continue
frame=28406 fps= 28 q=23.0 size=  978176KiB time=00:18:56.28 bitrate=7052.2kbits/s speed=1.11x    
frame=28406
fps=27.86
stream_0_0_q=23.0
bitrate=7052.2kbits/s
total_size=1001652272
out_time_us=1136280000
out_time_ms=1136280000
out_time=00:18:56.280000
dup_frames=0
drop_frames=0
speed=1.11x
progress=continue
frame=28507 fps= 28 q=23.0 size=  983552KiB time=00:19:00.32 bitrate=7065.8kbits/s speed=1.11x    
frame=28507
fps=27.82
stream_0_0_q=23.0
bitrate=7065.8kbits/s
total_size=1007157296
out_time_us=1140320000
out_time_ms=1140320000
out_time=00:19:00.320000
dup_frames=0
drop_frames=0
speed=1.11x
progress=continue
frame=28617 fps= 28 q=23.0 size=  988160KiB time=00:19:04.72 bitrate=7071.6kbits/s speed=1.11x    
frame=28617
fps=27.79
stream_0_0_q=23.0
bitrate=7071.6kbits/s
total_size=1011875888
out_time_us=1144720000
out_time_ms=1144720000
out_time=00:19:04.720000
dup_frames=0
drop_frames=0
speed=1.11x
progress=continue
frame=28742 fps= 28 q=23.0 size=  995072KiB time=00:19:09.72 bitrate=7090.1kbits/s speed=1.11x    
frame=28742
fps=27.78
stream_0_0_q=23.0
bitrate=7090.1kbits/s
total_size=1018953776
out_time_us=1149720000
out_time_ms=1149720000
out_time=00:19:09.720000
dup_frames=0
drop_frames=0
speed=1.11x
progress=continue
frame=28858 fps= 28 q=23.0 size=  999680KiB time=00:19:14.32 bitrate=7094.5kbits/s speed=1.11x    
frame=28858
fps=27.75
stream_0_0_q=23.0
bitrate=7094.5kbits/s
total_size=1023672368
out_time_us=1154320000
out_time_ms=1154320000
out_time=00:19:14.320000
dup_frames=0
drop_frames=0
speed=1.11x
progress=continue
frame=28992 fps= 28 q=23.0 size= 1003264KiB time=00:19:19.72 bitrate=7086.8kbits/s speed=1.11x    
frame=28992
fps=27.75
stream_0_0_q=23.0
bitrate=7086.8kbits/s
total_size=1027342384
out_time_us=1159720000
out_time_ms=1159720000
out_time=00:19:19.720000
dup_frames=0
drop_frames=0
speed=1.11x
progress=continue
frame=29233 fps= 28 q=23.0 size= 1007104KiB time=00:19:29.36 bitrate=7055.3kbits/s speed=1.11x    
frame=29233
fps=27.84
stream_0_0_q=23.0
bitrate=7055.3kbits/s
total_size=1031274544
out_time_us=1169360000
out_time_ms=1169360000
out_time=00:19:29.360000
dup_frames=0
drop_frames=0
speed=1.11x
progress=continue
frame=29356 fps= 28 q=23.0 size= 1011968KiB time=00:19:34.28 bitrate=7059.7kbits/s speed=1.11x    
frame=29356
fps=27.83
stream_0_0_q=23.0
bitrate=7059.7kbits/s
total_size=1036255280
out_time_us=1174280000
out_time_ms=1174280000
out_time=00:19:34.280000
dup_frames=0
drop_frames=0
speed=1.11x
progress=continue
frame=29481 fps= 28 q=23.0 size= 1016832KiB time=00:19:39.28 bitrate=7063.5kbits/s speed=1.11x    
frame=29481
fps=27.81
stream_0_0_q=23.0
bitrate=7063.5kbits/s
total_size=1041236016
out_time_us=1179280000
out_time_ms=1179280000
out_time=00:19:39.280000
dup_frames=0
drop_frames=0
speed=1.11x
progress=continue
frame=29598 fps= 28 q=23.0 size= 1021184KiB time=00:19:43.96 bitrate=7065.7kbits/s speed=1.11x    
frame=29598
fps=27.79
stream_0_0_q=23.0
bitrate=7065.7kbits/s
total_size=1045692464
out_time_us=1183960000
out_time_ms=1183960000
out_time=00:19:43.960000
dup_frames=0
drop_frames=0
speed=1.11x
progress=continue
frame=29715 fps= 28 q=20.0 size= 1030400KiB time=00:19:48.64 bitrate=7101.4kbits/s speed=1.11x    
frame=29715
fps=27.77
stream_0_0_q=20.0
bitrate=7101.4kbits/s
total_size=1055129648
out_time_us=1188640000
out_time_ms=1188640000
out_time=00:19:48.640000
dup_frames=0
drop_frames=0
speed=1.11x
progress=continue
frame=29821 fps= 28 q=23.0 size= 1038848KiB time=00:19:52.88 bitrate=7134.2kbits/s speed=1.11x    
frame=29821
fps=27.74
stream_0_0_q=23.0
bitrate=7134.2kbits/s
total_size=1063780400
out_time_us=1192880000
out_time_ms=1192880000
out_time=00:19:52.880000
dup_frames=0
drop_frames=0
speed=1.11x
progress=continue
frame=29934 fps= 28 q=23.0 size= 1045248KiB time=00:19:57.36 bitrate=7151.3kbits/s speed=1.11x    
frame=29934
fps=27.72
stream_0_0_q=23.0
bitrate=7151.3kbits/s
total_size=1070334000
out_time_us=1197360000
out_time_ms=1197360000
out_time=00:19:57.360000
dup_frames=0
drop_frames=0
speed=1.11x
progress=continue
frame=30044 fps= 28 q=23.0 size= 1049600KiB time=00:20:01.80 bitrate=7154.5kbits/s speed=1.11x    
frame=30044
fps=27.69
stream_0_0_q=23.0
bitrate=7154.5kbits/s
total_size=1074790448
out_time_us=1201800000
out_time_ms=1201800000
out_time=00:20:01.800000
dup_frames=0
drop_frames=0
speed=1.11x
progress=continue
frame=30136 fps= 28 q=23.0 size= 1056512KiB time=00:20:05.44 bitrate=7179.9kbits/s speed=1.11x    
frame=30136
fps=27.65
stream_0_0_q=23.0
bitrate=7179.9kbits/s
total_size=1081868336
out_time_us=1205440000
out_time_ms=1205440000
out_time=00:20:05.440000
dup_frames=0
drop_frames=0
speed=1.11x
progress=continue
frame=30259 fps= 28 q=23.0 size= 1060864KiB time=00:20:10.40 bitrate=7179.9kbits/s speed=1.11x    
frame=30259
fps=27.63
stream_0_0_q=23.0
bitrate=7179.9kbits/s
total_size=1086324784
out_time_us=1210400000
out_time_ms=1210400000
out_time=00:20:10.400000
dup_frames=0
drop_frames=0
speed=1.11x
progress=continue
frame=30435 fps= 28 q=23.0 size= 1065728KiB time=00:20:17.44 bitrate=7171.1kbits/s speed=1.11x    
frame=30435
fps=27.66
stream_0_0_q=23.0
bitrate=7171.1kbits/s
total_size=1091305520
out_time_us=1217440000
out_time_ms=1217440000
out_time=00:20:17.440000
dup_frames=0
drop_frames=0
speed=1.11x
progress=continue
frame=30609 fps= 28 q=23.0 size= 1069312KiB time=00:20:24.40 bitrate=7154.4kbits/s speed=1.11x    
frame=30609
fps=27.70
stream_0_0_q=23.0
bitrate=7154.4kbits/s
total_size=1094975536
out_time_us=1224400000
out_time_ms=1224400000
out_time=00:20:24.400000
dup_frames=0
drop_frames=0
speed=1.11x
progress=continue
frame=30741 fps= 28 q=23.0 size= 1073152KiB time=00:20:29.68 bitrate=7149.2kbits/s speed=1.11x    
frame=30741
fps=27.69
stream_0_0_q=23.0
bitrate=7149.2kbits/s
total_size=1098907696
out_time_us=1229680000
out_time_ms=1229680000
out_time=00:20:29.680000
dup_frames=0
drop_frames=0
speed=1.11x
progress=continue
frame=30907 fps= 28 q=23.0 size= 1077760KiB time=00:20:36.32 bitrate=7141.4kbits/s speed=1.11x    
frame=30907
fps=27.71
stream_0_0_q=23.0
bitrate=7141.4kbits/s
total_size=1103626288
out_time_us=1236320000
out_time_ms=1236320000
out_time=00:20:36.320000
dup_frames=0
drop_frames=0
speed=1.11x
progress=continue
frame=31090 fps= 28 q=20.0 size= 1081856KiB time=00:20:43.64 bitrate=7126.3kbits/s speed=1.11x    
frame=31090
fps=27.75
stream_0_0_q=20.0
bitrate=7126.3kbits/s
total_size=1107820592
out_time_us=1243640000
out_time_ms=1243640000
out_time=00:20:43.640000
dup_frames=0
drop_frames=0
speed=1.11x
progress=continue
frame=31245 fps= 28 q=23.0 size= 1086720KiB time=00:20:49.84 bitrate=7122.8kbits/s speed=1.11x    
frame=31245
fps=27.77
stream_0_0_q=23.0
bitrate=7122.8kbits/s
total_size=1112801328
out_time_us=1249840000
out_time_ms=1249840000
out_time=00:20:49.840000
dup_frames=0
drop_frames=0
speed=1.11x
progress=continue
frame=31437 fps= 28 q=23.0 size= 1091072KiB time=00:20:57.52 bitrate=7107.7kbits/s speed=1.11x    
frame=31437
fps=27.81
stream_0_0_q=23.0
bitrate=7107.7kbits/s
total_size=1117257776
out_time_us=1257520000
out_time_ms=1257520000
out_time=00:20:57.520000
dup_frames=0
drop_frames=0
speed=1.11x
progress=continue
frame=31654 fps= 28 q=23.0 size= 1095424KiB time=00:21:06.20 bitrate=7087.1kbits/s speed=1.12x    
frame=31654
fps=27.88
stream_0_0_q=23.0
bitrate=7087.1kbits/s
total_size=1121714224
out_time_us=1266200000
out_time_ms=1266200000
out_time=00:21:06.200000
dup_frames=0
drop_frames=0
speed=1.12x
progress=continue
frame=31839 fps= 28 q=23.0 size= 1099264KiB time=00:21:13.60 bitrate=7070.6kbits/s speed=1.12x    
frame=31839
fps=27.92
stream_0_0_q=23.0
bitrate=7070.6kbits/s
total_size=1125646384
out_time_us=1273600000
out_time_ms=1273600000
out_time=00:21:13.600000
dup_frames=0
drop_frames=0
speed=1.12x
progress=continue
frame=32029 fps= 28 q=23.0 size= 1103616KiB time=00:21:21.16 bitrate=7056.7kbits/s speed=1.12x    
frame=32029
fps=27.96
stream_0_0_q=23.0
bitrate=7056.7kbits/s
total_size=1130102832
out_time_us=1281160000
out_time_ms=1281160000
out_time=00:21:21.160000
dup_frames=0
drop_frames=0
speed=1.12x
progress=continue
frame=32192 fps= 28 q=23.0 size= 1107456KiB time=00:21:27.64 bitrate=7045.7kbits/s speed=1.12x    
frame=32192
fps=27.98
stream_0_0_q=23.0
bitrate=7045.7kbits/s
total_size=1134034992
out_time_us=1287640000
out_time_ms=1287640000
out_time=00:21:27.640000
dup_frames=0
drop_frames=0
speed=1.12x
progress=continue
frame=32377 fps= 28 q=23.0 size= 1111808KiB time=00:21:35.12 bitrate=7032.5kbits/s speed=1.12x    
frame=32377
fps=28.02
stream_0_0_q=23.0
bitrate=7032.5kbits/s
total_size=1138491440
out_time_us=1295120000
out_time_ms=1295120000
out_time=00:21:35.120000
dup_frames=0
drop_frames=0
speed=1.12x
progress=continue
frame=32555 fps= 28 q=23.0 size= 1115904KiB time=00:21:42.24 bitrate=7019.8kbits/s speed=1.12x    
frame=32555
fps=28.05
stream_0_0_q=23.0
bitrate=7019.8kbits/s
total_size=1142685744
out_time_us=1302240000
out_time_ms=1302240000
out_time=00:21:42.240000
dup_frames=0
drop_frames=0
speed=1.12x
progress=continue
frame=32732 fps= 28 q=23.0 size= 1120768KiB time=00:21:49.32 bitrate=7012.3kbits/s speed=1.12x    
frame=32732
fps=28.09
stream_0_0_q=23.0
bitrate=7012.3kbits/s
total_size=1147666480
out_time_us=1309320000
out_time_ms=1309320000
out_time=00:21:49.320000
dup_frames=0
drop_frames=0
speed=1.12x
progress=continue
frame=32907 fps= 28 q=23.0 size= 1125376KiB time=00:21:56.32 bitrate=7003.7kbits/s speed=1.12x    
frame=32907
fps=28.12
stream_0_0_q=23.0
bitrate=7003.7kbits/s
total_size=1152385072
out_time_us=1316320000
out_time_ms=1316320000
out_time=00:21:56.320000
dup_frames=0
drop_frames=0
speed=1.12x
progress=continue
frame=33059 fps= 28 q=23.0 size= 1129728KiB time=00:22:02.40 bitrate=6998.4kbits/s speed=1.13x    
frame=33059
fps=28.12
stream_0_0_q=23.0
bitrate=6998.4kbits/s
total_size=1156841520
out_time_us=1322400000
out_time_ms=1322400000
out_time=00:22:02.400000
dup_frames=0
drop_frames=0
speed=1.13x
progress=continue
frame=33205 fps= 28 q=23.0 size= 1135104KiB time=00:22:08.24 bitrate=7000.8kbits/s speed=1.13x    
frame=33205
fps=28.13
stream_0_0_q=23.0
bitrate=7000.8kbits/s
total_size=1162346544
out_time_us=1328240000
out_time_ms=1328240000
out_time=00:22:08.240000
dup_frames=0
drop_frames=0
speed=1.13x
progress=continue
frame=33346 fps= 28 q=23.0 size= 1139968KiB time=00:22:13.88 bitrate=7001.1kbits/s speed=1.13x    
frame=33346
fps=28.13
stream_0_0_q=23.0
bitrate=7001.1kbits/s
total_size=1167327280
out_time_us=1333880000
out_time_ms=1333880000
out_time=00:22:13.880000
dup_frames=0
drop_frames=0
speed=1.13x
progress=continue
frame=33479 fps= 28 q=23.0 size= 1144064KiB time=00:22:19.16 bitrate=6998.5kbits/s speed=1.12x    
frame=33479
fps=28.12
stream_0_0_q=23.0
bitrate=6998.5kbits/s
total_size=1171521584
out_time_us=1339160000
out_time_ms=1339160000
out_time=00:22:19.160000
dup_frames=0
drop_frames=0
speed=1.12x
progress=continue
frame=33620 fps= 28 q=23.0 size= 1147648KiB time=00:22:24.84 bitrate=6990.8kbits/s speed=1.12x    
frame=33620
fps=28.12
stream_0_0_q=23.0
bitrate=6990.8kbits/s
total_size=1175191600
out_time_us=1344840000
out_time_ms=1344840000
out_time=00:22:24.840000
dup_frames=0
drop_frames=0
speed=1.12x
progress=continue
frame=33761 fps= 28 q=23.0 size= 1152512KiB time=00:22:30.48 bitrate=6991.1kbits/s speed=1.12x    
frame=33761
fps=28.12
stream_0_0_q=23.0
bitrate=6991.1kbits/s
total_size=1180172336
out_time_us=1350480000
out_time_ms=1350480000
out_time=00:22:30.480000
dup_frames=0
drop_frames=0
speed=1.12x
progress=continue
frame=33892 fps= 28 q=23.0 size= 1156864KiB time=00:22:35.72 bitrate=6990.4kbits/s speed=1.12x    
frame=33892
fps=28.11
stream_0_0_q=23.0
bitrate=6990.4kbits/s
total_size=1184628784
out_time_us=1355720000
out_time_ms=1355720000
out_time=00:22:35.720000
dup_frames=0
drop_frames=0
speed=1.12x
progress=continue
frame=34055 fps= 28 q=23.0 size= 1160448KiB time=00:22:42.24 bitrate=6978.5kbits/s speed=1.13x    
frame=34055
fps=28.13
stream_0_0_q=23.0
bitrate=6978.5kbits/s
total_size=1188298800
out_time_us=1362240000
out_time_ms=1362240000
out_time=00:22:42.240000
dup_frames=0
drop_frames=0
speed=1.13x
progress=continue
frame=34214 fps= 28 q=23.0 size= 1164288KiB time=00:22:48.60 bitrate=6969.1kbits/s speed=1.13x    
frame=34214
fps=28.14
stream_0_0_q=23.0
bitrate=6969.1kbits/s
total_size=1192230960
out_time_us=1368600000
out_time_ms=1368600000
out_time=00:22:48.600000
dup_frames=0
drop_frames=0
speed=1.13x
progress=continue
frame=34395 fps= 28 q=23.0 size= 1168384KiB time=00:22:55.84 bitrate=6956.8kbits/s speed=1.13x    
frame=34395
fps=28.18
stream_0_0_q=23.0
bitrate=6956.8kbits/s
total_size=1196425264
out_time_us=1375840000
out_time_ms=1375840000
out_time=00:22:55.840000
dup_frames=0
drop_frames=0
speed=1.13x
progress=continue
frame=34561 fps= 28 q=23.0 size= 1172736KiB time=00:23:02.48 bitrate=6949.1kbits/s speed=1.13x    
frame=34561
fps=28.20
stream_0_0_q=23.0
bitrate=6949.1kbits/s
total_size=1200881712
out_time_us=1382480000
out_time_ms=1382480000
out_time=00:23:02.480000
dup_frames=0
drop_frames=0
speed=1.13x
progress=continue
frame=34720 fps= 28 q=23.0 size= 1176832KiB time=00:23:08.84 bitrate=6941.5kbits/s speed=1.13x    
frame=34720
fps=28.21
stream_0_0_q=23.0
bitrate=6941.5kbits/s
total_size=1205076016
out_time_us=1388840000
out_time_ms=1388840000
out_time=00:23:08.840000
dup_frames=0
drop_frames=0
speed=1.13x
progress=continue
frame=34831 fps= 28 q=23.0 size= 1181184KiB time=00:23:13.24 bitrate=6945.1kbits/s speed=1.13x    
frame=34831
fps=28.19
stream_0_0_q=23.0
bitrate=6945.1kbits/s
total_size=1209532464
out_time_us=1393240000
out_time_ms=1393240000
out_time=00:23:13.240000
dup_frames=0
drop_frames=0
speed=1.13x
progress=continue
frame=35028 fps= 28 q=23.0 size= 1185280KiB time=00:23:21.08 bitrate=6930.2kbits/s speed=1.13x    
frame=35028
fps=28.23
stream_0_0_q=23.0
bitrate=6930.2kbits/s
total_size=1213726768
out_time_us=1401080000
out_time_ms=1401080000
out_time=00:23:21.080000
dup_frames=0
drop_frames=0
speed=1.13x
progress=continue
frame=35188 fps= 28 q=23.0 size= 1189888KiB time=00:23:27.56 bitrate=6925.1kbits/s speed=1.13x    
frame=35188
fps=28.25
stream_0_0_q=23.0
bitrate=6925.1kbits/s
total_size=1218445360
out_time_us=1407560000
out_time_ms=1407560000
out_time=00:23:27.560000
dup_frames=0
drop_frames=0
speed=1.13x
progress=continue
frame=35346 fps= 28 q=23.0 size= 1194752KiB time=00:23:33.84 bitrate=6922.6kbits/s speed=1.13x    
frame=35346
fps=28.26
stream_0_0_q=23.0
bitrate=6922.6kbits/s
total_size=1223426096
out_time_us=1413840000
out_time_ms=1413840000
out_time=00:23:33.840000
dup_frames=0
drop_frames=0
speed=1.13x
progress=continue
frame=35531 fps= 28 q=23.0 size= 1199360KiB time=00:23:41.28 bitrate=6912.9kbits/s speed=1.13x    
frame=35531
fps=28.29
stream_0_0_q=23.0
bitrate=6912.9kbits/s
total_size=1228144688
out_time_us=1421280000
out_time_ms=1421280000
out_time=00:23:41.280000
dup_frames=0
drop_frames=0
speed=1.13x
progress=continue
frame=35694 fps= 28 q=23.0 size= 1202944KiB time=00:23:47.80 bitrate=6901.9kbits/s speed=1.13x    
frame=35694
fps=28.31
stream_0_0_q=23.0
bitrate=6901.9kbits/s
total_size=1231814704
out_time_us=1427800000
out_time_ms=1427800000
out_time=00:23:47.800000
dup_frames=0
drop_frames=0
speed=1.13x
progress=continue
frame=35858 fps= 28 q=23.0 size= 1206528KiB time=00:23:54.36 bitrate=6890.8kbits/s speed=1.13x    
frame=35858
fps=28.33
stream_0_0_q=23.0
bitrate=6890.8kbits/s
total_size=1235484720
out_time_us=1434360000
out_time_ms=1434360000
out_time=00:23:54.360000
dup_frames=0
drop_frames=0
speed=1.13x
progress=continue
frame=36017 fps= 28 q=23.0 size= 1210880KiB time=00:24:00.72 bitrate=6885.1kbits/s speed=1.13x    
frame=36017
fps=28.34
stream_0_0_q=23.0
bitrate=6885.1kbits/s
total_size=1239941168
out_time_us=1440720000
out_time_ms=1440720000
out_time=00:24:00.720000
dup_frames=0
drop_frames=0
speed=1.13x
progress=continue
frame=36148 fps= 28 q=23.0 size= 1214208KiB time=00:24:05.96 bitrate=6879.0kbits/s speed=1.13x    
frame=36148
fps=28.33
stream_0_0_q=23.0
bitrate=6879.0kbits/s
total_size=1243349040
out_time_us=1445960000
out_time_ms=1445960000
out_time=00:24:05.960000
dup_frames=0
drop_frames=0
speed=1.13x
progress=continue
frame=36303 fps= 28 q=23.0 size= 1217280KiB time=00:24:12.16 bitrate=6867.0kbits/s speed=1.13x    
frame=36303
fps=28.34
stream_0_0_q=23.0
bitrate=6867.0kbits/s
total_size=1246494768
out_time_us=1452160000
out_time_ms=1452160000
out_time=00:24:12.160000
dup_frames=0
drop_frames=0
speed=1.13x
progress=continue
frame=36433 fps= 28 q=23.0 size= 1220608KiB time=00:24:17.36 bitrate=6861.2kbits/s speed=1.13x    
frame=36433
fps=28.33
stream_0_0_q=23.0
bitrate=6861.2kbits/s
total_size=1249902640
out_time_us=1457360000
out_time_ms=1457360000
out_time=00:24:17.360000
dup_frames=0
drop_frames=0
speed=1.13x
progress=continue
frame=36607 fps= 28 q=23.0 size= 1223936KiB time=00:24:24.32 bitrate=6847.2kbits/s speed=1.13x    
frame=36607
fps=28.36
stream_0_0_q=23.0
bitrate=6847.2kbits/s
total_size=1253310512
out_time_us=1464320000
out_time_ms=1464320000
out_time=00:24:24.320000
dup_frames=0
drop_frames=0
speed=1.13x
progress=continue
frame=36736 fps= 28 q=23.0 size= 1228544KiB time=00:24:29.48 bitrate=6848.8kbits/s speed=1.13x    
frame=36736
fps=28.34
stream_0_0_q=23.0
bitrate=6848.8kbits/s
total_size=1258029104
out_time_us=1469480000
out_time_ms=1469480000
out_time=00:24:29.480000
dup_frames=0
drop_frames=0
speed=1.13x
progress=continue
frame=36856 fps= 28 q=23.0 size= 1234432KiB time=00:24:34.28 bitrate=6859.3kbits/s speed=1.13x    
frame=36856
fps=28.33
stream_0_0_q=23.0
bitrate=6859.3kbits/s
total_size=1264058416
out_time_us=1474280000
out_time_ms=1474280000
out_time=00:24:34.280000
dup_frames=0
drop_frames=0
speed=1.13x
progress=continue
frame=36972 fps= 28 q=23.0 size= 1238528KiB time=00:24:38.84 bitrate=6860.8kbits/s speed=1.13x    
frame=36972
fps=28.31
stream_0_0_q=23.0
bitrate=6860.8kbits/s
total_size=1268252720
out_time_us=1478840000
out_time_ms=1478840000
out_time=00:24:38.840000
dup_frames=0
drop_frames=0
speed=1.13x
progress=continue
frame=37095 fps= 28 q=23.0 size= 1243392KiB time=00:24:43.76 bitrate=6864.9kbits/s speed=1.13x    
frame=37095
fps=28.29
stream_0_0_q=23.0
bitrate=6864.9kbits/s
total_size=1273233456
out_time_us=1483760000
out_time_ms=1483760000
out_time=00:24:43.760000
dup_frames=0
drop_frames=0
speed=1.13x
progress=continue
frame=37189 fps= 28 q=23.0 size= 1251840KiB time=00:24:47.56 bitrate=6893.9kbits/s speed=1.13x    
frame=37189
fps=28.25
stream_0_0_q=23.0
bitrate=6893.9kbits/s
total_size=1281884208
out_time_us=1487560000
out_time_ms=1487560000
out_time=00:24:47.560000
dup_frames=0
drop_frames=0
speed=1.13x
progress=continue
frame=37328 fps= 28 q=23.0 size= 1257216KiB time=00:24:53.16 bitrate=6897.5kbits/s speed=1.13x    
frame=37328
fps=28.25
stream_0_0_q=23.0
bitrate=6897.5kbits/s
total_size=1287389232
out_time_us=1493160000
out_time_ms=1493160000
out_time=00:24:53.160000
dup_frames=0
drop_frames=0
speed=1.13x
progress=continue
frame=37473 fps= 28 q=23.0 size= 1262080KiB time=00:24:58.96 bitrate=6897.4kbits/s speed=1.13x    
frame=37473
fps=28.25
stream_0_0_q=23.0
bitrate=6897.4kbits/s
total_size=1292369968
out_time_us=1498960000
out_time_ms=1498960000
out_time=00:24:58.960000
dup_frames=0
drop_frames=0
speed=1.13x
progress=continue
frame=37608 fps= 28 q=23.0 size= 1268224KiB time=00:25:04.36 bitrate=6906.1kbits/s speed=1.13x    
frame=37608
fps=28.25
stream_0_0_q=23.0
bitrate=6906.1kbits/s
total_size=1298661424
out_time_us=1504360000
out_time_ms=1504360000
out_time=00:25:04.360000
dup_frames=0
drop_frames=0
speed=1.13x
progress=continue
frame=37724 fps= 28 q=23.0 size= 1273600KiB time=00:25:09.00 bitrate=6914.1kbits/s speed=1.13x    
frame=37724
fps=28.23
stream_0_0_q=23.0
bitrate=6914.1kbits/s
total_size=1304166448
out_time_us=1509000000
out_time_ms=1509000000
out_time=00:25:09.000000
dup_frames=0
drop_frames=0
speed=1.13x
progress=continue
frame=37848 fps= 28 q=23.0 size= 1278464KiB time=00:25:13.96 bitrate=6917.7kbits/s speed=1.13x    
frame=37848
fps=28.22
stream_0_0_q=23.0
bitrate=6917.7kbits/s
total_size=1309147184
out_time_us=1513960000
out_time_ms=1513960000
out_time=00:25:13.960000
dup_frames=0
drop_frames=0
speed=1.13x
progress=continue
frame=37955 fps= 28 q=23.0 size= 1284608KiB time=00:25:18.20 bitrate=6931.6kbits/s speed=1.13x    
frame=37955
fps=28.19
stream_0_0_q=23.0
bitrate=6931.6kbits/s
total_size=1315438640
out_time_us=1518200000
out_time_ms=1518200000
out_time=00:25:18.200000
dup_frames=0
drop_frames=0
speed=1.13x
progress=continue
frame=38066 fps= 28 q=23.0 size= 1289472KiB time=00:25:22.64 bitrate=6937.5kbits/s speed=1.13x    
frame=38066
fps=28.17
stream_0_0_q=23.0
bitrate=6937.5kbits/s
total_size=1320419376
out_time_us=1522640000
out_time_ms=1522640000
out_time=00:25:22.640000
dup_frames=0
drop_frames=0
speed=1.13x
progress=continue
frame=38194 fps= 28 q=23.0 size= 1294592KiB time=00:25:27.80 bitrate=6941.5kbits/s speed=1.13x    
frame=38194
fps=28.15
stream_0_0_q=23.0
bitrate=6941.5kbits/s
total_size=1325662256
out_time_us=1527800000
out_time_ms=1527800000
out_time=00:25:27.800000
dup_frames=0
drop_frames=0
speed=1.13x
progress=continue
frame=38330 fps= 28 q=23.0 size= 1299712KiB time=00:25:33.24 bitrate=6944.3kbits/s speed=1.13x    
frame=38330
fps=28.15
stream_0_0_q=23.0
bitrate=6944.3kbits/s
total_size=1330905136
out_time_us=1533240000
out_time_ms=1533240000
out_time=00:25:33.240000
dup_frames=0
drop_frames=0
speed=1.13x
progress=continue
frame=38441 fps= 28 q=23.0 size= 1306624KiB time=00:25:37.68 bitrate=6961.0kbits/s speed=1.13x    
frame=38441
fps=28.13
stream_0_0_q=23.0
bitrate=6961.0kbits/s
total_size=1337983024
out_time_us=1537680000
out_time_ms=1537680000
out_time=00:25:37.680000
dup_frames=0
drop_frames=0
speed=1.13x
progress=continue
frame=38581 fps= 28 q=23.0 size= 1311488KiB time=00:25:43.28 bitrate=6961.6kbits/s speed=1.13x    
frame=38581
fps=28.13
stream_0_0_q=23.0
bitrate=6961.6kbits/s
total_size=1342963760
out_time_us=1543280000
out_time_ms=1543280000
out_time=00:25:43.280000
dup_frames=0
drop_frames=0
speed=1.13x
progress=continue
frame=38697 fps= 28 q=23.0 size= 1317888KiB time=00:25:47.92 bitrate=6974.6kbits/s speed=1.12x    
frame=38697
fps=28.11
stream_0_0_q=23.0
bitrate=6974.6kbits/s
total_size=1349517360
out_time_us=1547920000
out_time_ms=1547920000
out_time=00:25:47.920000
dup_frames=0
drop_frames=0
speed=1.12x
progress=continue
frame=38827 fps= 28 q=23.0 size= 1323520KiB time=00:25:53.12 bitrate=6981.0kbits/s speed=1.12x    
frame=38827
fps=28.10
stream_0_0_q=23.0
bitrate=6981.0kbits/s
total_size=1355284528
out_time_us=1553120000
out_time_ms=1553120000
out_time=00:25:53.120000
dup_frames=0
drop_frames=0
speed=1.12x
progress=continue
frame=38974 fps= 28 q=23.0 size= 1327872KiB time=00:25:59.00 bitrate=6977.5kbits/s speed=1.12x    
frame=38974
fps=28.10
stream_0_0_q=23.0
bitrate=6977.5kbits/s
total_size=1359740976
out_time_us=1559000000
out_time_ms=1559000000
out_time=00:25:59.000000
dup_frames=0
drop_frames=0
speed=1.12x
progress=continue
frame=39097 fps= 28 q=23.0 size= 1332736KiB time=00:26:03.88 bitrate=6981.2kbits/s speed=1.12x    
frame=39097
fps=28.09
stream_0_0_q=23.0
bitrate=6981.2kbits/s
total_size=1364721712
out_time_us=1563880000
out_time_ms=1563880000
out_time=00:26:03.880000
dup_frames=0
drop_frames=0
speed=1.12x
progress=continue
frame=39187 fps= 28 q=23.0 size= 1337344KiB time=00:26:07.52 bitrate=6989.1kbits/s speed=1.12x    
frame=39187
fps=28.05
stream_0_0_q=23.0
bitrate=6989.1kbits/s
total_size=1369440304
out_time_us=1567520000
out_time_ms=1567520000
out_time=00:26:07.520000
dup_frames=0
drop_frames=0
speed=1.12x
progress=continue
frame=39314 fps= 28 q=23.0 size= 1342208KiB time=00:26:12.60 bitrate=6991.8kbits/s speed=1.12x    
frame=39314
fps=28.04
stream_0_0_q=23.0
bitrate=6991.8kbits/s
total_size=1374421040
out_time_us=1572600000
out_time_ms=1572600000
out_time=00:26:12.600000
dup_frames=0
drop_frames=0
speed=1.12x
progress=continue
frame=39440 fps= 28 q=20.0 size= 1347072KiB time=00:26:17.64 bitrate=6994.8kbits/s speed=1.12x    
frame=39440
fps=28.03
stream_0_0_q=20.0
bitrate=6994.8kbits/s
total_size=1379401776
out_time_us=1577640000
out_time_ms=1577640000
out_time=00:26:17.640000
dup_frames=0
drop_frames=0
speed=1.12x
progress=continue
frame=39566 fps= 28 q=23.0 size= 1352704KiB time=00:26:22.68 bitrate=7001.6kbits/s speed=1.12x    
frame=39566
fps=28.02
stream_0_0_q=23.0
bitrate=7001.6kbits/s
total_size=1385168944
out_time_us=1582680000
out_time_ms=1582680000
out_time=00:26:22.680000
dup_frames=0
drop_frames=0
speed=1.12x
progress=continue
frame=39696 fps= 28 q=23.0 size= 1357568KiB time=00:26:27.84 bitrate=7004.0kbits/s speed=1.12x    
frame=39696
fps=28.02
stream_0_0_q=23.0
bitrate=7004.0kbits/s
total_size=1390149680
out_time_us=1587840000
out_time_ms=1587840000
out_time=00:26:27.840000
dup_frames=0
drop_frames=0
speed=1.12x
progress=continue
frame=39844 fps= 28 q=23.0 size= 1362688KiB time=00:26:33.80 bitrate=7004.1kbits/s speed=1.12x    
frame=39844
fps=28.02
stream_0_0_q=23.0
bitrate=7004.1kbits/s
total_size=1395392560
out_time_us=1593800000
out_time_ms=1593800000
out_time=00:26:33.800000
dup_frames=0
drop_frames=0
speed=1.12x
progress=continue
frame=39956 fps= 28 q=23.0 size= 1370624KiB time=00:26:38.28 bitrate=7025.1kbits/s speed=1.12x    
frame=39956
fps=28.00
stream_0_0_q=23.0
bitrate=7025.1kbits/s
total_size=1403519024
out_time_us=1598280000
out_time_ms=1598280000
out_time=00:26:38.280000
dup_frames=0
drop_frames=0
speed=1.12x
progress=continue
frame=40078 fps= 28 q=23.0 size= 1379072KiB time=N/A bitrate=N/A speed=N/A    
frame=40078
fps=27.99
stream_0_0_q=23.0
bitrate=N/A
total_size=1412169776
out_time_us=N/A
out_time_ms=N/A
out_time=N/A
dup_frames=0
drop_frames=0
speed=N/A
progress=continue
[mp4 @ 000002614d63e780] Starting second pass: moving the moov atom to the beginning of the file
[out#0/mp4 @ 000002614bc3c7c0] video:1342562KiB audio:37747KiB subtitle:0KiB other streams:0KiB global headers:0KiB muxing overhead: 0.067516%
frame=40102 fps= 28 q=-1.0 Lsize= 1381241KiB time=00:26:44.12 bitrate=7053.8kbits/s speed=1.12x    
frame=40102
fps=27.97
stream_0_0_q=-1.0
bitrate=7053.8kbits/s
total_size=1414390985
out_time_us=1604120000
out_time_ms=1604120000
out_time=00:26:44.120000
dup_frames=0
drop_frames=0
speed=1.12x
progress=end
[libx264 @ 000002614dabab40] frame I:1605  Avg QP:14.35  size:183520
[libx264 @ 000002614dabab40] frame P:38497 Avg QP:17.78  size: 28060
[libx264 @ 000002614dabab40] mb I  I16..4: 11.0% 69.6% 19.4%
[libx264 @ 000002614dabab40] mb P  I16..4:  2.1%  7.1%  0.8%  P16..4: 34.5% 11.4%  5.6%  0.0%  0.0%    skip:38.4%
[libx264 @ 000002614dabab40] 8x8 transform intra:70.5% inter:76.1%
[libx264 @ 000002614dabab40] coded y,uvDC,uvAC intra: 59.0% 50.6% 23.5% inter: 18.1% 12.5% 0.4%
[libx264 @ 000002614dabab40] i16 v,h,dc,p: 31% 18%  7% 44%
[libx264 @ 000002614dabab40] i8 v,h,dc,ddl,ddr,vr,hd,vl,hu: 32% 18% 16%  4%  5%  7%  6%  7%  6%
[libx264 @ 000002614dabab40] i4 v,h,dc,ddl,ddr,vr,hd,vl,hu: 36% 20%  9%  5%  7%  7%  6%  6%  4%
[libx264 @ 000002614dabab40] i8c dc,h,v,p: 58% 17% 20%  5%
[libx264 @ 000002614dabab40] Weighted P-Frames: Y:1.3% UV:0.5%
[libx264 @ 000002614dabab40] ref P L0: 62.1% 10.8% 18.8%  8.1%  0.0%
[libx264 @ 000002614dabab40] kb/s:6856.43
[aac @ 000002614ec34900] Qavg: 1312.304
